<svg xmlns="http://www.w3.org/2000/svg" viewBox="158.7 443.3 590.7 97.3">
	<linearGradient id="SVGID_1_" gradientUnits="userSpaceOnUse" x1="37.55" y1="150" x2="37.55" y2="187" gradientTransform="matrix(1.7835 0 0 -1.7835 120.0404 803.7955)">
		<stop  offset="0"             style="stop-color:#6C8896"/>
		<stop  offset="0.1451"        style="stop-color:#B9CAD3"/>
		<stop  offset="0.2022"        style="stop-color:#D0DBE2"/>
		<stop  offset="0.2418"        style="stop-color:#D8E2E7"/>
		<stop  offset="0.3224"        style="stop-color:#C9D6DD"/>
		<stop  offset="0.4704"        style="stop-color:#A3B8C3"/>
		<stop  offset="0.6692"        style="stop-color:#6E8997"/>
		<stop  offset="0.9089"        style="stop-color:#2F4F5E"/>
		<stop  offset="1"             style="stop-color:#113442"/>
		<stop  offset="1.926647e-003" style="stop-color:#6D8997"/>
		<stop  offset="7.733236e-002" style="stop-color:#97ADB9"/>
	</linearGradient>
	<path fill="url(#SVGID_1_)" d="M185.7,470.6c-11.9,0-21.6,14.8-21.6,33.2c0,18.4,9.6,33.2,21.6,33.2l4.6-0.2c5,0,12.3-1.2,9.3-3.7 c-6.6-5.4-10.9-15.7-10.9-27.5c0-17.3,9.5-31.4,21.2-31.4l-21.4-3.4L185.7,470.6z"/>
	<linearGradient id="SVGID_2_" gradientUnits="userSpaceOnUse" x1="50.05" y1="166" x2="50.05" y2="150" gradientTransform="matrix(1.7835 0 0 -1.7835 120.0404 803.7955)">
		<stop  offset="0"      style="stop-color:#ED1C24"/>
		<stop  offset="0.3736" style="stop-color:#ED1C24"/>
		<stop  offset="0.4467" style="stop-color:#E51C23"/>
		<stop  offset="0.5449" style="stop-color:#D61A21"/>
		<stop  offset="0.6573" style="stop-color:#BE171D"/>
		<stop  offset="0.7804" style="stop-color:#9F0F13"/>
		<stop  offset="0.9106" style="stop-color:#7A0101"/>
		<stop  offset="1"      style="stop-color:#5E0000"/>
	</linearGradient>
	<path fill="url(#SVGID_2_)" d="M185.7,537c10.9,0,21-11.8,20.3-28.5h26.9c0,17.5-12.3,28.5-23.9,28.5H185.7z"/>
	<linearGradient id="SVGID_3_" gradientUnits="userSpaceOnUse" x1="58.8745" y1="187" x2="58.8745" y2="150" gradientTransform="matrix(1.7835 0 0 -1.7835 120.0404 803.7955)">
		<stop  offset="0"             style="stop-color:#B5191E"/>
		<stop  offset="0.1154"        style="stop-color:#ED1C24"/>
		<stop  offset="0.1871"        style="stop-color:#F05139"/>
		<stop  offset="0.2455"        style="stop-color:#F2684B"/>
		<stop  offset="0.2802"        style="stop-color:#F37053"/>
		<stop  offset="0.3389"        style="stop-color:#F15F43"/>
		<stop  offset="0.4588"        style="stop-color:#EE2325"/>
		<stop  offset="0.467"         style="stop-color:#ED1C24"/>
		<stop  offset="0.5282"        style="stop-color:#E01B23"/>
		<stop  offset="0.6371"        style="stop-color:#C6181E"/>
		<stop  offset="0.7811"        style="stop-color:#9E0F13"/>
		<stop  offset="0.9528"        style="stop-color:#6C0000"/>
		<stop  offset="1"             style="stop-color:#5E0000"/>
		<stop  offset="2.278189e-002" style="stop-color:#C91B21"/>
		<stop  offset="4.952808e-002" style="stop-color:#DB1C23"/>
		<stop  offset="7.885586e-002" style="stop-color:#E71C24"/>
	</linearGradient>
	<path fill="url(#SVGID_3_)" d="M245.1,537l13.7-1.1c5.2,0,7.3-0.5,4.1-3c-7.3-5.9-13-17.7-17.8-29.1c-7.1-17.1-14.3-33.2-28.5-33.2 h-30.9c13.4,0,20.2,16.1,26.9,33.2c6.6,16.4,15,33.2,26.8,33.2H245.1z"/>
	<linearGradient id="SVGID_4_" gradientUnits="userSpaceOnUse" x1="93.7" y1="150" x2="93.7" y2="199.5817" gradientTransform="matrix(1.7835 0 0 -1.7835 120.0404 803.7955)">
		<stop  offset="0"             style="stop-color:#6C8896"/>
		<stop  offset="0.1462"        style="stop-color:#C5D3DA"/>
		<stop  offset="0.1943"        style="stop-color:#D3DEE4"/>
		<stop  offset="0.2418"        style="stop-color:#D8E2E7"/>
		<stop  offset="0.3224"        style="stop-color:#C9D6DD"/>
		<stop  offset="0.4704"        style="stop-color:#A3B8C3"/>
		<stop  offset="0.6692"        style="stop-color:#6E8997"/>
		<stop  offset="0.9089"        style="stop-color:#2F4F5E"/>
		<stop  offset="1"             style="stop-color:#113442"/>
		<stop  offset="4.922779e-002" style="stop-color:#8FA7B3"/>
		<stop  offset="8.691043e-004" style="stop-color:#6D8897"/>
		<stop  offset="9.784003e-002" style="stop-color:#AEC0CA"/>
	</linearGradient>
	<path fill="url(#SVGID_4_)" d="M269.1,537c15.3,0,25.7-27.6,33-44.6c10.3-23.5,20.2-44.6,33-44.6h-30.7c-12.8,0-22.5,20.9-32.6,44.6 c-7.3,16.9-17.7,44.6-32.6,44.6H269.1z"/>

	<path    fill="#CC0000" d="M345.1,523.8H337l-3.2-8.4h-14.9l-3.1,8.4h-7.9l14.4-37.1h7.9L345.1,523.8L345.1,523.8z M331.4,509.1 l-5.2-13.7l-5,13.7H331.4L331.4,509.1z"/>
	<polygon fill="#CC0000" points="354.7,523.8 341.5,486.8 349.6,486.8 359,514.2 368,486.8 376,486.8 362.8,523.8 354.7,523.8 "/>
	<path    fill="#4C5255" d="M393.6,497h6.5v3.7c2.3-2.8,5.1-4.2,8.4-4.2c1.7,0,3.2,0.4,4.5,1.1c1.3,0.7,2.3,1.8,3.1,3.2 c1.2-1.4,2.5-2.5,3.8-3.2c1.4-0.7,2.8-1.1,4.4-1.1c2,0,3.6,0.4,5,1.2c1.4,0.8,2.4,2,3.1,3.5c0.5,1.1,0.7,3,0.7,5.6v17.2H426v-15.3 c0-2.7-0.2-4.4-0.7-5.2c-0.7-1-1.7-1.5-3-1.5c-1,0-1.9,0.3-2.8,0.9c-0.9,0.6-1.5,1.5-1.9,2.7c-0.4,1.2-0.6,3-0.6,5.5v12.9h-7.1 v-14.7c0-2.6-0.1-4.3-0.4-5c-0.3-0.8-0.6-1.3-1.2-1.7c-0.5-0.4-1.3-0.6-2.2-0.6c-1.1,0-2.1,0.3-3,0.9c-0.9,0.6-1.5,1.4-1.9,2.6 c-0.4,1.1-0.6,3-0.6,5.5v13h-7.1V497L393.6,497z"/>
	<path    fill="#4C5255" d="M455.7,515.3l7.1,1.2c-0.9,2.6-2.3,4.6-4.3,5.9c-2,1.4-4.4,2-7.4,2c-4.7,0-8.1-1.5-10.4-4.6 c-1.8-2.5-2.7-5.5-2.7-9.3c0-4.5,1.2-7.9,3.5-10.5c2.3-2.5,5.3-3.8,8.8-3.8c4,0,7.1,1.3,9.4,4c2.3,2.6,3.4,6.7,3.3,12.1h-17.8 c0.1,2.1,0.6,3.7,1.7,4.9c1.1,1.2,2.5,1.8,4.1,1.8c1.1,0,2-0.3,2.8-0.9C454.8,517.7,455.3,516.7,455.7,515.3L455.7,515.3z M456.1,508.1c-0.1-2.1-0.6-3.6-1.6-4.7c-1-1.1-2.2-1.6-3.7-1.6c-1.5,0-2.8,0.6-3.8,1.7c-1,1.1-1.5,2.7-1.5,4.6H456.1L456.1,508.1z"/>
	<path    fill="#4C5255" d="M481.3,497v5.6h-4.9v10.9c0,2.2,0,3.5,0.1,3.9c0.1,0.4,0.3,0.7,0.6,0.9c0.3,0.2,0.7,0.4,1.2,0.4 c0.7,0,1.6-0.2,2.9-0.7l0.6,5.5c-1.6,0.7-3.5,1.1-5.6,1.1c-1.3,0-2.4-0.2-3.5-0.6c-1-0.4-1.8-1-2.3-1.7c-0.5-0.7-0.8-1.6-1-2.8 c-0.1-0.8-0.2-2.5-0.2-5v-11.8H466V497h3.3v-5.3l7.1-4.2v9.5H481.3L481.3,497z"/>
	<path    fill="#4C5255" d="M491.5,505.2l-6.4-1.1c0.7-2.6,2-4.6,3.7-5.8c1.8-1.3,4.4-1.9,7.9-1.9c3.2,0,5.5,0.4,7.1,1.1 c1.5,0.8,2.6,1.7,3.3,2.9c0.6,1.2,1,3.3,1,6.4l-0.1,8.3c0,2.4,0.1,4.1,0.3,5.2c0.2,1.1,0.6,2.3,1.3,3.6h-7c-0.2-0.5-0.4-1.2-0.7-2.1 c-0.1-0.4-0.2-0.7-0.3-0.8c-1.2,1.2-2.5,2.1-3.9,2.7c-1.4,0.6-2.8,0.9-4.4,0.9c-2.8,0-4.9-0.8-6.5-2.3c-1.6-1.5-2.4-3.4-2.4-5.7 c0-1.5,0.4-2.9,1.1-4.1c0.7-1.2,1.7-2.1,3-2.7c1.3-0.6,3.2-1.2,5.6-1.7c3.3-0.6,5.6-1.2,6.9-1.7v-0.7c0-1.4-0.3-2.4-1-3 c-0.7-0.6-2-0.9-3.8-0.9c-1.3,0-2.3,0.3-3,0.8C492.5,503.1,491.9,504,491.5,505.2L491.5,505.2z M501,511c-0.9,0.3-2.3,0.7-4.3,1.1 c-2,0.4-3.3,0.8-3.9,1.2c-0.9,0.7-1.4,1.5-1.4,2.5c0,1,0.4,1.9,1.1,2.6c0.7,0.7,1.7,1.1,2.8,1.1c1.3,0,2.5-0.4,3.7-1.3 c0.9-0.6,1.4-1.4,1.7-2.4c0.2-0.6,0.3-1.8,0.3-3.5V511L501,511z"/>
	<polygon fill="#4C5255" points="515,523.8 515,486.8 522.1,486.8 522.1,523.8 515,523.8 "/>
	<path    fill="#4C5255" d="M543.1,525.5l8.1,1c0.1,1,0.4,1.6,0.9,2c0.7,0.5,1.7,0.8,3.2,0.8c1.9,0,3.2-0.3,4.2-0.8 c0.6-0.4,1.1-1,1.4-1.8c0.2-0.6,0.3-1.7,0.3-3.3l0-3.9c-2.1,2.9-4.8,4.4-8.1,4.4c-3.6,0-6.5-1.5-8.6-4.6c-1.7-2.4-2.5-5.4-2.5-9 c0-4.5,1.1-7.9,3.3-10.3c2.2-2.4,4.9-3.6,8.1-3.6c3.3,0,6.1,1.5,8.2,4.4V497h6.6v24.1c0,3.2-0.3,5.5-0.8,7.1 c-0.5,1.6-1.3,2.8-2.2,3.7c-0.9,0.9-2.2,1.6-3.8,2.1c-1.6,0.5-3.6,0.8-6,0.8c-4.6,0-7.8-0.8-9.7-2.3c-1.9-1.6-2.9-3.5-2.9-6 C543.1,526.2,543.1,525.9,543.1,525.5L543.1,525.5z M549.5,509.9c0,2.8,0.6,4.9,1.6,6.2c1.1,1.3,2.5,2,4.1,2c1.7,0,3.2-0.7,4.4-2 c1.2-1.4,1.8-3.4,1.8-6c0-2.8-0.6-4.8-1.7-6.2c-1.1-1.3-2.6-2-4.3-2c-1.7,0-3.1,0.7-4.2,2C550,505.1,549.5,507.1,549.5,509.9 L549.5,509.9z"/>
	<path    fill="#4C5255" d="M582.2,523.8h-7.1V497h6.6v3.8c1.1-1.8,2.1-3,3.1-3.5c0.9-0.6,1.9-0.8,3.1-0.8c1.6,0,3.2,0.4,4.7,1.3 l-2.2,6.2c-1.2-0.8-2.3-1.2-3.3-1.2c-1,0-1.8,0.3-2.5,0.8c-0.7,0.6-1.2,1.5-1.6,3c-0.4,1.4-0.6,4.4-0.6,9V523.8L582.2,523.8z"/>
	<path    fill="#4C5255" d="M593.9,510.1c0-2.4,0.6-4.7,1.7-6.9c1.2-2.2,2.8-3.9,4.9-5.1c2.1-1.2,4.5-1.8,7.1-1.8c4.1,0,7.4,1.3,10,4 c2.6,2.7,3.9,6,3.9,10c0,4.1-1.3,7.4-3.9,10.1c-2.6,2.7-5.9,4-9.9,4c-2.5,0-4.8-0.6-7-1.7c-2.2-1.1-3.9-2.7-5.1-4.9 C594.5,515.8,593.9,513.2,593.9,510.1L593.9,510.1z M601.2,510.5c0,2.7,0.6,4.7,1.9,6.1c1.3,1.4,2.8,2.1,4.7,2.1 c1.8,0,3.4-0.7,4.7-2.1c1.3-1.4,1.9-3.5,1.9-6.2c0-2.6-0.6-4.7-1.9-6.1c-1.3-1.4-2.8-2.1-4.7-2.1c-1.9,0-3.4,0.7-4.7,2.1 C601.9,505.7,601.2,507.8,601.2,510.5L601.2,510.5z"/>
	<path    fill="#4C5255" d="M645,523.8v-4c-1,1.4-2.3,2.6-3.9,3.4c-1.6,0.8-3.3,1.3-5,1.3c-1.8,0-3.4-0.4-4.9-1.2 c-1.4-0.8-2.5-1.9-3.1-3.3c-0.6-1.4-1-3.4-1-6v-17h7.1v12.4c0,3.8,0.1,6.1,0.4,7c0.3,0.9,0.7,1.5,1.4,2c0.7,0.5,1.6,0.8,2.6,0.8 c1.2,0,2.3-0.3,3.3-1c1-0.7,1.6-1.5,2-2.5c0.4-1,0.5-3.4,0.5-7.3V497h7.1v26.9H645L645,523.8z"/>
	<path    fill="#4C5255" d="M658.6,497h6.6v3.9c0.9-1.3,2-2.4,3.5-3.3c1.5-0.8,3.1-1.2,4.9-1.2c3.1,0,5.8,1.2,7.9,3.7 c2.2,2.4,3.3,5.9,3.3,10.2c0,4.5-1.1,8-3.3,10.5c-2.2,2.5-4.9,3.7-8,3.7c-1.5,0-2.8-0.3-4-0.9c-1.2-0.6-2.5-1.6-3.8-3V534h-7.1V497 L658.6,497z M665.6,510c0,3,0.6,5.3,1.8,6.7c1.2,1.4,2.7,2.2,4.4,2.2c1.6,0,3-0.7,4.1-2c1.1-1.3,1.6-3.5,1.6-6.5 c0-2.8-0.6-4.9-1.7-6.3c-1.1-1.4-2.5-2.1-4.2-2.1c-1.7,0-3.2,0.7-4.3,2C666.2,505.3,665.6,507.3,665.6,510L665.6,510z"/>
</svg>