<svg xmlns="http://www.w3.org/2000/svg" viewBox="158.7 443.3 590.7 97.3">
	<linearGradient id="SVGID_1_" gradientUnits="userSpaceOnUse" x1="37.55" y1="150" x2="37.55" y2="187" gradientTransform="matrix(1.7835 0 0 -1.7835 120.0404 803.7955)">
		<stop  offset="0"             style="stop-color:#6C8896"/>
		<stop  offset="0.1451"        style="stop-color:#B9CAD3"/>
		<stop  offset="0.2022"        style="stop-color:#D0DBE2"/>
		<stop  offset="0.2418"        style="stop-color:#D8E2E7"/>
		<stop  offset="0.3224"        style="stop-color:#C9D6DD"/>
		<stop  offset="0.4704"        style="stop-color:#A3B8C3"/>
		<stop  offset="0.6692"        style="stop-color:#6E8997"/>
		<stop  offset="0.9089"        style="stop-color:#2F4F5E"/>
		<stop  offset="1"             style="stop-color:#113442"/>
		<stop  offset="1.926647e-003" style="stop-color:#6D8997"/>
		<stop  offset="7.733236e-002" style="stop-color:#97ADB9"/>
	</linearGradient>
	<path fill="url(#SVGID_1_)" d="M185.7,470.6c-11.9,0-21.6,14.8-21.6,33.2c0,18.4,9.6,33.2,21.6,33.2l4.6-0.2c5,0,12.3-1.2,9.3-3.7 c-6.6-5.4-10.9-15.7-10.9-27.5c0-17.3,9.5-31.4,21.2-31.4l-21.4-3.4L185.7,470.6z"/>
	<linearGradient id="SVGID_2_" gradientUnits="userSpaceOnUse" x1="50.05" y1="166" x2="50.05" y2="150" gradientTransform="matrix(1.7835 0 0 -1.7835 120.0404 803.7955)">
		<stop  offset="0"      style="stop-color:#ED1C24"/>
		<stop  offset="0.3736" style="stop-color:#ED1C24"/>
		<stop  offset="0.4467" style="stop-color:#E51C23"/>
		<stop  offset="0.5449" style="stop-color:#D61A21"/>
		<stop  offset="0.6573" style="stop-color:#BE171D"/>
		<stop  offset="0.7804" style="stop-color:#9F0F13"/>
		<stop  offset="0.9106" style="stop-color:#7A0101"/>
		<stop  offset="1"      style="stop-color:#5E0000"/>
	</linearGradient>
	<path fill="url(#SVGID_2_)" d="M185.7,537c10.9,0,21-11.8,20.3-28.5h26.9c0,17.5-12.3,28.5-23.9,28.5H185.7z"/>
	<linearGradient id="SVGID_3_" gradientUnits="userSpaceOnUse" x1="58.8745" y1="187" x2="58.8745" y2="150" gradientTransform="matrix(1.7835 0 0 -1.7835 120.0404 803.7955)">
		<stop  offset="0"             style="stop-color:#B5191E"/>
		<stop  offset="0.1154"        style="stop-color:#ED1C24"/>
		<stop  offset="0.1871"        style="stop-color:#F05139"/>
		<stop  offset="0.2455"        style="stop-color:#F2684B"/>
		<stop  offset="0.2802"        style="stop-color:#F37053"/>
		<stop  offset="0.3389"        style="stop-color:#F15F43"/>
		<stop  offset="0.4588"        style="stop-color:#EE2325"/>
		<stop  offset="0.467"         style="stop-color:#ED1C24"/>
		<stop  offset="0.5282"        style="stop-color:#E01B23"/>
		<stop  offset="0.6371"        style="stop-color:#C6181E"/>
		<stop  offset="0.7811"        style="stop-color:#9E0F13"/>
		<stop  offset="0.9528"        style="stop-color:#6C0000"/>
		<stop  offset="1"             style="stop-color:#5E0000"/>
		<stop  offset="2.278189e-002" style="stop-color:#C91B21"/>
		<stop  offset="4.952808e-002" style="stop-color:#DB1C23"/>
		<stop  offset="7.885586e-002" style="stop-color:#E71C24"/>
	</linearGradient>
	<path fill="url(#SVGID_3_)" d="M245.1,537l13.7-1.1c5.2,0,7.3-0.5,4.1-3c-7.3-5.9-13-17.7-17.8-29.1c-7.1-17.1-14.3-33.2-28.5-33.2 h-30.9c13.4,0,20.2,16.1,26.9,33.2c6.6,16.4,15,33.2,26.8,33.2H245.1z"/>
	<linearGradient id="SVGID_4_" gradientUnits="userSpaceOnUse" x1="93.7" y1="150" x2="93.7" y2="199.5817" gradientTransform="matrix(1.7835 0 0 -1.7835 120.0404 803.7955)">
		<stop  offset="0"             style="stop-color:#6C8896"/>
		<stop  offset="0.1462"        style="stop-color:#C5D3DA"/>
		<stop  offset="0.1943"        style="stop-color:#D3DEE4"/>
		<stop  offset="0.2418"        style="stop-color:#D8E2E7"/>
		<stop  offset="0.3224"        style="stop-color:#C9D6DD"/>
		<stop  offset="0.4704"        style="stop-color:#A3B8C3"/>
		<stop  offset="0.6692"        style="stop-color:#6E8997"/>
		<stop  offset="0.9089"        style="stop-color:#2F4F5E"/>
		<stop  offset="1"             style="stop-color:#113442"/>
		<stop  offset="4.922779e-002" style="stop-color:#8FA7B3"/>
		<stop  offset="8.691043e-004" style="stop-color:#6D8897"/>
		<stop  offset="9.784003e-002" style="stop-color:#AEC0CA"/>
	</linearGradient>
	<path fill="url(#SVGID_4_)" d="M269.1,537c15.3,0,25.7-27.6,33-44.6c10.3-23.5,20.2-44.6,33-44.6h-30.7c-12.8,0-22.5,20.9-32.6,44.6 c-7.3,16.9-17.7,44.6-32.6,44.6H269.1z"/>

	<path fill="#CC0000" d="M345.6,523.4h-9.5c0-1.1-1.1-4.6-2.8-10.2h-13.7c-1.8,5.6-2.8,9.1-2.8,10.2h-7.7c-0.7,0-1.1-0.7-1.1-1.1 c0.7-2.5,3.2-8.1,6.7-16.5c4.6-11.2,7-17.2,7-18.6H333c0,1.1,2.1,7,6.3,18.2C343.5,516.4,345.6,522.4,345.6,523.4z M331.9,507.6 c-3.5-9.5-5.3-14.7-5.3-15.4h-0.4c0,0.7-1.8,6-5.3,15.4H331.9z"/>
	<path fill="#CC0000" d="M377.1,512.5c0,7.4-6.7,10.9-19.3,10.9c-2.5,0-6,0-10.5-0.4c0.4-5.6,0.4-11.9,0.4-18.9 c0-6.7-0.4-12.3-0.4-17.2h4.9c1.1,0,2.5,0,4.6,0s3.9,0,5.3,0c8.8,0,13.3,2.5,13.3,8.1c0,4.2-2.5,6.7-6.7,8.1v0.4 c2.5,0.4,4.6,1.1,6.3,2.5C376.1,507.6,377.1,509.7,377.1,512.5z M366.6,497.1c0-3.2-2.5-4.9-6.7-4.9c-2.1,0-3.9,0.4-5.3,0.4 c0.4,1.8,0.4,5.3,0.4,9.5c0.7,0,1.8,0,2.5,0C363.8,502.4,366.6,500.6,366.6,497.1z M369.1,512.9c0-3.9-3.5-5.6-10.5-5.6 c-1.4,0-2.5,0-3.5,0.4c0,3.9,0,7.4,0.4,10.9c0.7,0.4,1.8,0.4,3.2,0.4c3.9,0,6.3-0.4,8.1-1.1C368,516.4,369.1,515,369.1,512.9z"/>
	<path fill="#4C5255" d="M426.5,523.4h-5.6c-0.4,0-1.1-0.4-1.1-1.1c0-4.6-0.4-19.3-0.4-20h-0.4c-0.4,1.4-5.3,15.1-7.4,21h-5.6 c0,0-1.8-5.6-3.5-10.2c-1.8-4.6-3.2-7.7-3.9-10.9h-0.4c0,1.1,0,4.6-0.4,10.2c-0.4,5.3-0.4,9.1-0.4,10.9h-6.7 c0-0.4,1.8-26.6,1.8-26.6h10.5c0,2.1,6.3,20.3,6.3,20.3h0.4c0.4-1.1,6-17.9,6.3-20.3h10.9l1.1,25.6 C427.6,522.7,427.2,523.4,426.5,523.4z"/>
	<path fill="#4C5255" d="M458.4,507.3c0,1.1,0,2.1-0.4,3.9l-19.3,0.4c0.4,2.1,1.1,3.9,2.8,5.3s3.9,2.1,6.7,2.1 c3.2,0,6-0.4,9.5-1.1l-0.7,5.3c-2.8,1.1-6,1.4-10.2,1.4c-5.3,0-9.1-1.4-11.9-3.9c-2.8-2.8-4.2-6-4.2-9.8c0-3.9,1.4-7.4,3.9-10.2 c2.5-2.8,6.3-4.6,10.9-4.6c4.2,0,7.4,1.1,9.5,3.2C457.4,501,458.4,503.8,458.4,507.3z M451.4,506.9c0-4.2-1.8-6.3-6-6.3 c-3.9,0-6,2.1-6.7,6.7L451.4,506.9z"/>
	<path fill="#4C5255" d="M486.5,496.8v5.6c-2.8-0.4-6-0.4-8.8-0.4c0,2.5,0,15.1,0.4,20.3c0,0.4-0.4,1.1-1.1,1.1h-6 c-0.4,0-1.1-0.4-1.1-1.1c0.4-4.9,0.4-17.9,0.4-20.3c-2.8,0-6,0.4-9.1,0.4l0.4-5.6H486.5z"/>
	<path fill="#4C5255" d="M515.2,523.4l-7,0.4c-0.4-0.7-0.4-1.4-0.4-2.1h-0.4c-2.1,1.8-5.3,2.5-8.8,2.5c-2.5,0-4.6-0.7-6.3-1.8 c-1.8-1.4-2.5-3.2-2.5-5.3c0-2.8,1.1-5.3,3.9-7c2.5-1.8,7-2.8,13.7-2.8c0-0.4,0-0.7,0-1.1c0-2.1-0.4-3.2-1.8-3.9 c-1.1-0.7-3.2-1.1-5.6-1.1c-3.2,0-6,0.4-8.8,1.1l0.7-5.3c2.8-1.1,6.7-1.4,11.6-1.4c3.5,0,6.3,0.7,8.4,2.1 c1.8,1.4,3.2,3.9,3.2,7.4c0,0.7,0,2.1,0,4.2c0,2.1,0,3.5,0,4.2C514.2,517.8,514.5,520.9,515.2,523.4z M507.2,517.4 c0-2.5-0.4-4.6-0.4-6.7c-6.7,0-10.2,1.8-10.2,4.9c0,2.1,1.4,3.2,4.6,3.2C503.7,519.2,505.4,518.5,507.2,517.4z"/>
	<path fill="#4C5255" d="M517.7,523.4c0.7-1.8,2.1-5.6,5.3-13.3c3.2-7.7,5.3-12.3,6-13.3h7.7c0.4,1.1,1.8,5.6,4.6,13.7 c2.5,6,3.9,9.8,4.2,11.6c0.4,0.7-0.4,1.1-1.1,1.1H537c-0.4-1.1-1.1-3.9-3.2-9.5c-1.8-5.6-2.5-8.8-3.2-9.8h-0.4 c-0.4,1.1-1.4,3.9-3.2,9.5c-1.8,5.3-2.5,8.8-2.8,10.2L517.7,523.4z"/>
	<path fill="#4C5255" d="M597.4,497.3l-0.4,6c-1.4-0.4-6-0.4-13.3-0.4c0,3.2,0.4,15.1,0.4,20c0,0.4-0.4,1.1-1.1,1.1h-6 c-0.4,0-1.1-0.4-1.1-1.1c0.4-5.3,0.4-21.7,0-25.6H597.4z"/>
	<path fill="#4C5255" d="M691.3,497.3h-26.6c0.4,3.5,0.4,20,0,25.6c0,0.4,0.4,1.1,1.1,1.1h6c0.4,0,1.1-0.4,1.1-1.1 c-0.4-4.6-0.4-16.5-0.4-20c6,0.4,9.8,0.4,11.9,0.4c0.4,6.7,0,15.8-0.4,19.6c0,0.4,0.4,1.1,1.1,1.1h5.3c0.4,0,1.1-0.4,1.1-1.1 C691.3,519,691.7,506.4,691.3,497.3z"/>
	<path fill="#4C5255" d="M725.3,497.3h-27c0.4,3.5,0.4,20,0,25.6c0,0.4,0.4,1.1,1.1,1.1h6c0.4,0,1.1-0.4,1.1-1.1 c-0.4-4.6-0.4-16.5-0.4-20c6,0.4,9.8,0.4,11.9,0.4c0.4,6.7,0,15.8-0.4,19.6c0,0.4,0.4,1.1,1.1,1.1h5.3c0.4,0,1.1-0.4,1.1-1.1 C725,519,725.3,506.4,725.3,497.3z"/>
	<path fill="#4C5255" d="M632.1,509.5c0,3.9-1.1,7.4-3.9,10.5c-2.5,3.2-6,4.6-10.2,4.6c-3.2,0-5.3-0.7-6.7-1.8l-0.4-0.4l0.4,14 h-8.1c0,0,0-11.6,0-18.6c0-9.1-0.4-16.1-1.1-20.3l7.7-0.7l0.4,2.5l0.7-0.4c2.1-1.8,4.9-2.5,8.4-2.5c3.9,0,6.7,1.1,9.1,3.9 C630.7,502.9,632.1,506,632.1,509.5z M624,510.2c0-3.5-1.4-6.3-4.2-8.4c-3.9-0.7-6.7,0-8.8,1.8c-0.4,0.4-0.4,0.4-0.4,0.7 c0.4,4.6,0.4,9.8,0.4,14c1.1,1.1,2.8,1.4,4.9,1.4c2.5,0,4.6-1.1,6-2.8C623.3,515.1,624,512.7,624,510.2z"/>
	<path fill="#4C5255" d="M660.5,497.3c0,0-8.8,23.5-9.8,26.6c-1.8,4.6-3.5,7.7-5.6,9.5s-5.3,2.5-9.5,2.5l-0.7-5.3 c2.5,0,4.6-0.7,6-1.8c1.8-1.4,2.5-3.2,2.5-5.3s-1.4-7-5.3-14.4c-3.5-7.4-5.3-11.6-5.3-11.6h7.7l6.7,20c0,0,5.3-18.6,5.3-20 C652.8,497.3,660.5,497.3,660.5,497.3z"/>
</svg>
