<svg xmlns="http://www.w3.org/2000/svg" viewBox="135.1 413.8 1794.2 1185.3">
<linearGradient id="SVGID_1_" gradientUnits="userSpaceOnUse" x1="37.55" y1="50" x2="37.55" y2="13" gradientTransform="matrix(16 0 0 16 1.026484e-004 407.9998)">
	<stop  offset="0" style="stop-color:#6C8896"/>
	<stop  offset="1.926647e-003" style="stop-color:#6D8997"/>
	<stop  offset="7.733236e-002" style="stop-color:#97ADB9"/>
	<stop  offset="0.1451" style="stop-color:#B9CAD3"/>
	<stop  offset="0.2022" style="stop-color:#D0DBE2"/>
	<stop  offset="0.2418" style="stop-color:#D8E2E7"/>
	<stop  offset="0.3224" style="stop-color:#C9D6DD"/>
	<stop  offset="0.4704" style="stop-color:#A3B8C3"/>
	<stop  offset="0.6692" style="stop-color:#6E8997"/>
	<stop  offset="0.9089" style="stop-color:#2F4F5E"/>
	<stop  offset="1" style="stop-color:#113442"/>
</linearGradient>
<path fill="url(#SVGID_1_)" d="M588.8,619.2c-107.2,0-193.6,132.8-193.6,297.6s86.4,297.6,193.6,297.6l41.6-1.6
	c44.8,0,110.4-11.2,83.2-33.6c-59.2-48-97.6-140.8-97.6-246.4c0-155.2,84.8-281.6,190.4-281.6l-192-30.4L588.8,619.2z"/>
<linearGradient id="SVGID_2_" gradientUnits="userSpaceOnUse" x1="50.05" y1="34" x2="50.05" y2="50" gradientTransform="matrix(16 0 0 16 1.026484e-004 407.9998)">
	<stop  offset="0" style="stop-color:#ED1C24"/>
	<stop  offset="0.3736" style="stop-color:#ED1C24"/>
	<stop  offset="0.4467" style="stop-color:#E51C23"/>
	<stop  offset="0.5449" style="stop-color:#D61A21"/>
	<stop  offset="0.6573" style="stop-color:#BE171D"/>
	<stop  offset="0.7804" style="stop-color:#9F0F13"/>
	<stop  offset="0.9106" style="stop-color:#7A0101"/>
	<stop  offset="1" style="stop-color:#5E0000"/>
</linearGradient>
<path fill="url(#SVGID_2_)" d="M588.8,1214.4c97.6,0,188.8-105.6,182.4-256h241.6c0,156.8-110.4,256-214.4,256H588.8z"/>
<linearGradient id="SVGID_3_" gradientUnits="userSpaceOnUse" x1="58.8745" y1="13" x2="58.8745" y2="50" gradientTransform="matrix(16 0 0 16 1.026484e-004 407.9998)">
	<stop  offset="0" style="stop-color:#B5191E"/>
	<stop  offset="2.278189e-002" style="stop-color:#C91B21"/>
	<stop  offset="4.952808e-002" style="stop-color:#DB1C23"/>
	<stop  offset="7.885586e-002" style="stop-color:#E71C24"/>
	<stop  offset="0.1154" style="stop-color:#ED1C24"/>
	<stop  offset="0.1871" style="stop-color:#F05139"/>
	<stop  offset="0.2455" style="stop-color:#F2684B"/>
	<stop  offset="0.2802" style="stop-color:#F37053"/>
	<stop  offset="0.3389" style="stop-color:#F15F43"/>
	<stop  offset="0.4588" style="stop-color:#EE2325"/>
	<stop  offset="0.467" style="stop-color:#ED1C24"/>
	<stop  offset="0.5282" style="stop-color:#E01B23"/>
	<stop  offset="0.6371" style="stop-color:#C6181E"/>
	<stop  offset="0.7811" style="stop-color:#9E0F13"/>
	<stop  offset="0.9528" style="stop-color:#6C0000"/>
	<stop  offset="1" style="stop-color:#5E0000"/>
</linearGradient>
<path fill="url(#SVGID_3_)" d="M1121.6,1214.4l123.2-9.6c46.4,0,65.6-4.8,36.8-27.2c-65.6-52.8-116.8-158.4-160-260.8
	c-64-153.6-128-297.6-256-297.6H588.8c120,0,180.8,144,241.6,297.6c59.2,147.2,134.4,297.6,240,297.6H1121.6z"/>
<linearGradient id="SVGID_4_" gradientUnits="userSpaceOnUse" x1="93.7" y1="50" x2="93.7" y2="0.4183" gradientTransform="matrix(16 0 0 16 1.026484e-004 407.9998)">
	<stop  offset="0" style="stop-color:#6C8896"/>
	<stop  offset="8.691043e-004" style="stop-color:#6D8897"/>
	<stop  offset="4.922779e-002" style="stop-color:#8FA7B3"/>
	<stop  offset="9.784003e-002" style="stop-color:#AEC0CA"/>
	<stop  offset="0.1462" style="stop-color:#C5D3DA"/>
	<stop  offset="0.1943" style="stop-color:#D3DEE4"/>
	<stop  offset="0.2418" style="stop-color:#D8E2E7"/>
	<stop  offset="0.3224" style="stop-color:#C9D6DD"/>
	<stop  offset="0.4704" style="stop-color:#A3B8C3"/>
	<stop  offset="0.6692" style="stop-color:#6E8997"/>
	<stop  offset="0.9089" style="stop-color:#2F4F5E"/>
	<stop  offset="1" style="stop-color:#113442"/>
</linearGradient>
<path fill="url(#SVGID_4_)" d="M1337.6,1214.4c137.6,0,230.4-248,296-400c92.8-211.2,180.8-400,296-400h-275.2
	c-115.2,0-201.6,187.2-292.8,400c-65.6,152-158.4,400-292.8,400H1337.6z"/>
<path fill="#D71920" d="M311.3,1535.6h-43.2c0-6.4-4.8-22.4-12.8-49.6h-64c-8,25.6-12.8,43.2-12.8,49.6h-41.6c0-3.2,11.2-32,32-84.8
	s32-83.2,32-88h51.2c0,4.8,9.6,33.6,28.8,86.4C301.7,1502,311.3,1530.8,311.3,1535.6z M247.3,1460.4c-16-46.4-24-70.4-24-73.6h-1.6
	c0,3.2-8,28.8-24,73.6H247.3z"/>
<path fill="#D71920" d="M455.3,1482.8c0,35.2-30.4,52.8-89.6,52.8c-9.6,0-27.2,0-48-1.6c1.6-27.2,1.6-57.6,1.6-91.2
	c0-32,0-59.2-1.6-83.2h22.4c4.8,0,11.2,0,20.8,0s17.6,0,24,0c40,0,60.8,12.8,60.8,38.4c0,19.2-9.6,32-30.4,38.4v1.6
	c11.2,1.6,20.8,6.4,28.8,12.8C452.1,1460.4,455.3,1470,455.3,1482.8z M408.9,1410.8c0-16-9.6-24-30.4-24c-9.6,0-17.6,0-25.6,1.6
	c1.6,9.6,1.6,24,1.6,46.4c3.2,0,6.4,0,11.2,0C394.5,1434.8,408.9,1426.8,408.9,1410.8z M418.5,1484.4c0-17.6-16-27.2-48-27.2
	c-6.4,0-11.2,0-16,0c0,19.2,0,35.2,1.6,51.2c3.2,0,8,1.6,14.4,1.6c17.6,0,28.8-1.6,36.8-6.4C415.3,1500.4,418.5,1494,418.5,1484.4z"
	/>
<path fill="#3E484F" d="M687.3,1535.6h-35.2c0-14.4,0-94.4,0-100.8h-3.2c-1.6,6.4-25.6,73.6-33.6,100.8h-25.6c0,0-9.6-27.2-16-48
	c-8-20.8-14.4-36.8-17.6-52.8h-1.6c0,6.4,0,22.4-1.6,48c-1.6,25.6-1.6,43.2-1.6,52.8h-32c0-3.2,8-126.4,8-126.4h48
	c0,9.6,28.8,97.6,28.8,97.6h1.6c1.6-4.8,27.2-86.4,28.8-97.6h49.6L687.3,1535.6z"/>
<path fill="#3E484F" d="M828.1,1458.8c0,4.8,0,11.2-1.6,17.6l-88,1.6c1.6,9.6,6.4,17.6,12.8,25.6c8,6.4,17.6,9.6,30.4,9.6
	c14.4,0,28.8-1.6,43.2-6.4l-3.2,25.6c-12.8,4.8-28.8,6.4-46.4,6.4c-24,0-41.6-6.4-54.4-19.2c-12.8-12.8-19.2-28.8-19.2-46.4
	c0-19.2,6.4-35.2,17.6-49.6c11.2-14.4,28.8-20.8,49.6-20.8c19.2,0,33.6,4.8,43.2,16C823.3,1428.4,828.1,1442.8,828.1,1458.8z
	 M796.1,1457.2c0-20.8-9.6-30.4-27.2-30.4c-17.6,0-27.2,11.2-30.4,32L796.1,1457.2z"/>
<path fill="#3E484F" d="M956.1,1409.2l-1.6,27.2c-12.8-1.6-27.2-1.6-40-1.6c0,12.8,0,83.2,1.6,100.8h-36.8
	c3.2-17.6,3.2-88,3.2-102.4c-12.8,0-27.2,0-41.6,1.6l1.6-27.2h113.6V1409.2z"/>
<path fill="#3E484F" d="M1088.9,1535.6l-32,1.6c-1.6-3.2-1.6-6.4-1.6-9.6h-1.6c-11.2,6.4-25.6,11.2-43.2,11.2
	c-11.2,0-20.8-3.2-28.8-9.6s-11.2-14.4-11.2-24c0-12.8,6.4-24,17.6-33.6c11.2-8,32-12.8,62.4-14.4c0-1.6,0-3.2,0-4.8
	c0-9.6-1.6-16-6.4-19.2c-4.8-3.2-12.8-4.8-25.6-4.8c-14.4,0-27.2,1.6-40,4.8l3.2-24c12.8-4.8,30.4-6.4,52.8-6.4
	c16,0,28.8,3.2,38.4,9.6s12.8,19.2,12.8,35.2c0,3.2,0,11.2,0,20.8c0,9.6,0,16,0,19.2C1084.1,1508.4,1085.7,1522.8,1088.9,1535.6z
	 M1052.1,1506.8c0-11.2-1.6-22.4-1.6-30.4c-30.4,0-46.4,8-46.4,22.4c0,11.2,6.4,16,20.8,16
	C1036.1,1514.8,1044.1,1513.2,1052.1,1506.8z"/>
<path fill="#3E484F" d="M1100.1,1535.6c3.2-8,9.6-27.2,24-62.4c16-36.8,24-57.6,27.2-62.4h35.2c1.6,4.8,8,27.2,22.4,64
	c14.4,38.4,20.8,57.6,22.4,62.4h-40c-1.6-4.8-4.8-17.6-12.8-46.4c-8-27.2-12.8-41.6-12.8-48h-1.6c-1.6,4.8-6.4,19.2-14.4,44.8
	c-8,25.6-11.2,41.6-12.8,48H1100.1z"/>
<path fill="#3E484F" d="M1437.5,1410.2v28.8c-6.4,0-27.2-1.6-60.8-1.6c0,17.6,1.6,81.6,3.2,100.8h-38.4c1.6-17.6,1.6-107.2,0-126.4
	h96V1410.2z"/>
<path fill="#3E484F" d="M1867.9,1410.2h-121.6c1.6,19.2,1.6,107.2,0,126.4h36.8c-1.6-17.6-3.2-83.2-3.2-100.8
	c27.2,0,44.8,1.6,54.4,1.6c0,35.2,0,84.8-1.6,99.2h33.6C1866.3,1523.8,1869.5,1456.6,1867.9,1410.2z"/>
<path fill="#3E484F" d="M1594.3,1467.8c0,19.2-6.4,36.8-17.6,51.2c-11.2,14.4-27.2,22.4-46.4,22.4c-14.4,0-24-3.2-30.4-9.6l-1.6-1.6
	l1.6,67.2h-36.8c0,0,0-56,0-88c0-43.2-1.6-78.4-4.8-97.6l35.2-3.2l1.6,12.8l3.2-1.6c9.6-8,22.4-12.8,38.4-12.8
	c17.6,0,32,6.4,41.6,19.2C1589.5,1435.8,1594.3,1450.2,1594.3,1467.8z M1559.1,1471c0-11.2-3.2-20.8-8-28.8
	c-6.4-8-14.4-12.8-24-12.8c-12.8,0-22.4,3.2-27.2,11.2c0,22.4,0,48,1.6,68.8c6.4,4.8,12.8,6.4,22.4,6.4c12.8,0,20.8-4.8,27.2-12.8
	C1555.9,1493.4,1559.1,1483.8,1559.1,1471z"/>
<path fill="#3E484F" d="M1725.5,1410.2c0,0-40,112-44.8,126.4c-8,20.8-16,36.8-25.6,46.4c-9.6,8-24,12.8-43.2,12.8l-3.2-25.6
	c11.2,0,20.8-3.2,27.2-9.6c8-6.4,11.2-14.4,11.2-25.6s-6.4-33.6-24-68.8c-16-35.2-24-54.4-24-56h35.2l32,94.4c0,0,24-88,24-94.4
	L1725.5,1410.2L1725.5,1410.2z"/>
</svg>