<svg xmlns="http://www.w3.org/2000/svg" viewBox="31.3 243.9 546 356.7">
	<path fill="#4E5356" d="M567.9,416.2h-64.3v-33.3h17.3c4.2,0,7.1-3.6,7.1-7.1c0-4.2-3.6-7.1-7.1-7.1h-17.3v-1.2 c0-4.2-3.6-7.1-7.1-7.1c-3.6,0-7.1,3.6-7.1,7.1v0.6H456v-28.6c0-4.2-3.6-7.1-7.1-7.1c-3.6,0-7.1,3.6-7.1,7.1V368h-33.3v-33.3h20.2 c4.2,0,7.1-3.6,7.1-7.1c0-3.6-3.6-7.1-7.1-7.1h-20.2v-8.9c0-4.2-3.6-7.1-7.1-7.1c-3.6,0-8.3,3.6-8.3,7.1v8.9h-33.3v-36.9 c0-4.2-3.6-7.1-7.1-7.1c-4.2,0-7.1,3.6-7.1,7.1v36.9h-33.3V287h18.5c4.2,0,7.1-3.6,7.1-7.1c0-4.2-3.6-7.1-7.1-7.1h-18.5v-16.7 c0-4.2-3.6-7.1-7.1-7.1c-4.2,0-7.1,3.6-7.1,7.1v16.1h-18.5c-4.2,0-7.1,3.6-7.1,7.1c0,4.2,3.6,7.1,7.1,7.1h18.5v33.3h-33.3v-36.9 c0-4.2-3.6-7.1-7.1-7.1c-4.2,0-7.1,3.6-7.1,7.1v36.9h-33.3v-8.9c0-4.2-3.6-7.1-7.1-7.1c-3.6,0-7.1,3.6-7.1,7.1v8.9h-20.2 c-4.2,0-7.1,3.6-7.1,7.1c0,3.6,3.6,7.1,7.1,7.1h20.2v33.3h-33.3v-28.6c0-4.2-3.6-7.1-7.1-7.1c-4.2,0-7.1,3.6-7.1,7.1v28.6h-33.3l0,0 c0-4.2-3.6-7.1-7.1-7.1c-4.2,0-7.1,3.6-7.1,7.1v0.6H89.9c-4.2,0-7.1,3.6-7.1,7.1c0,4.2,3.6,7.1,7.1,7.1h17.3v33.3H73.8v-20.8 c0-4.2-3.6-7.1-7.1-7.1c-4.2,0-7.1,3.6-7.1,7.1v20.8H41.1c-4.2,0-7.1,3.6-7.1,7.1c0,4.2,3.6,7.1,7.1,7.1h16.1v20.8 c0,4.2,3.6,7.1,7.1,7.1c4.2,0,7.1-3.6,7.1-7.1v-20.8h33.3v33.3H87.5c-4.2,0-7.1,3.6-7.1,7.1c0,4.2,3.6,7.1,7.1,7.1h17.3v0.6 c0,4.2,3.6,7.1,7.1,7.1c4.2,0,7.1-3.6,7.1-7.1v-0.6h33.3v28.6c0,4.2,3.6,7.1,7.1,7.1c4.2,0,7.1-3.6,7.1-7.1v-28.6H200v33.3h-20.2 c-4.2,0-7.1,3.6-7.1,7.1c0,3.6,3.6,7.1,7.1,7.1H200v8.9c0,4.2,3.6,7.1,7.1,7.1c3.6,0,7.1-3.6,7.1-7.1v-8.9h33.3V562 c0,4.2,3.6,7.1,7.1,7.1c4.2,0,7.1-3.6,7.1-7.1v-36.9h33.3v33.3h-18.5c-4.2,0-7.1,3.6-7.1,7.1s3.6,7.1,7.1,7.1h18.5v16.7 c0,4.2,3.6,7.1,7.1,7.1c4.2,0,7.1-3.6,7.1-7.1v-16.7H328c4.2,0,7.1-3.6,7.1-7.1s-3.6-7.1-7.1-7.1h-18.5v-33.3h33.3V562 c0,4.2,3.6,7.1,7.1,7.1c4.2,0,7.1-3.6,7.1-7.1v-36.9h35.7v8.9c0,4.2,3.6,7.1,7.1,7.1c3.6,0,7.1-3.6,7.1-7.1v-8.9h20.2 c4.2,0,7.1-3.6,7.1-7.1c0-3.6-3.6-7.1-7.1-7.1h-20.2v-33.3h33.3v28.6c0,4.2,3.6,7.1,7.1,7.1c3.6,0,7.1-3.6,7.1-7.1v-28.6h33.3v0.6 c0,4.2,3.6,7.1,7.1,7.1c3.6,0,7.1-3.6,7.1-7.1v-0.6h17.3c4.2,0,7.1-3.6,7.1-7.1c0-4.2-3.6-7.1-7.1-7.1h-17.3v-33.3h64.3 c4.2,0,7.1-3.6,7.1-7.1C575,419.8,571.5,416.2,567.9,416.2z M488.7,382.8v33.3h-33.3v-33.3H488.7z M441.1,382.8v33.3h-33.3v-33.3 H441.1z M297,416.2h-33.3v-33.3H297V416.2z M311.3,382.8h33.3v33.3h-33.3V382.8z M248.8,416.2h-33.3v-33.3h33.3V416.2z M248.8,431.1 v33.3h-33.3v-33.3H248.8z M263.7,431.1H297v33.3h-33.3V431.1z M311.3,431.1h33.3v33.3h-33.3V431.1z M359.5,431.1h33.3v33.3h-33.3 V431.1z M359.5,416.2v-33.3h33.3v33.3H359.5z M392.9,335.2v33.3h-33.3v-33.3H392.9z M344.7,335.2v33.3h-33.3v-33.3H344.7z M297,335.2v33.3h-33.3v-33.3H297z M215.5,335.2h33.3v33.3h-33.3V335.2z M201.2,382.8v33.3h-33.3v-33.3H201.2z M119.7,382.8H153 v33.3h-33.3V382.8z M119.7,464.4v-33.3H153v33.3H119.7z M167.9,464.4v-33.3h33.3v33.3H167.9z M215.5,512v-33.3h33.3V512H215.5z M263.7,512v-33.3H297V512H263.7z M311.3,512v-33.3h33.3V512H311.3z M392.9,512h-33.3v-33.3h33.3V512z M407.8,464.4v-33.3h33.3v33.3 H407.8z M488.7,464.4h-33.3v-33.3h33.3V464.4z"/>
</svg>