<svg xmlns="http://www.w3.org/2000/svg" viewBox="0 0 200 200">
	<path fill="#AFAFAF" d="M175.8,124.8L199.4,54c1.2-3.4,0.3-5.4-0.7-6.8c-2.5-3.4-7.5-3.5-8.5-3.5l-133.6,0l-3.5-16.9 c-1-4-3.8-7.8-9.5-7.8H6c-3.9,0-6,1.8-6,5.5v9.8c0,3.5,2.1,4.5,6.1,4.5h31.7l24.3,103c-3.9,4.1-5.9,10-5.9,15.6 c0,12.2,9.7,23.5,22.1,23.5c11.7,0,20.5-11,22-17.5h47.3c1.4,6.6,8.6,17.8,22,17.8c12.2,0,22.1-10.6,22.1-22.8 c0-12.1-7.4-22.9-22-22.9c-6.1,0-13.3,3.3-16.7,8.2h-58c-4.2-6.6-10-8.6-15.8-8.8l-0.8-4.3h88.4C173.3,130.4,174.6,128,175.8,124.8 z M169.6,149.6c4.6,0,8.3,3.7,8.3,8.3s-3.7,8.3-8.3,8.3c-4.6,0-8.3-3.7-8.3-8.3S165.1,149.6,169.6,149.6z M86.6,158 c0,4.6-3.8,8.4-8.4,8.4c-4.6,0-8.4-3.8-8.4-8.4s3.8-8.4,8.4-8.4C82.8,149.5,86.6,153.3,86.6,158z"/>
</svg>