<svg xmlns="http://www.w3.org/2000/svg" viewBox="0 0 200 200">
	<path fill="#717A84" d="M128.8,103.2c-1.8-1.8-1.8-4.6,0-6.4l68.5-68.5c1.8-1.8,2.7-4.6,2.7-6.4s-0.9-4.6-2.7-6.4L184.5,2.7 c-1.8-1.8-4.6-2.7-6.4-2.7c-2.7,0-4.6,0.9-6.4,2.7l-68.5,68.5c-1.8,1.8-4.6,1.8-6.4,0L28.3,2.7C26.5,0.9,23.7,0,21.9,0 s-4.6,0.9-6.4,2.7L2.7,15.5C0.9,17.4,0,20.1,0,21.9s0.9,4.6,2.7,6.4l68.5,68.5c1.8,1.8,1.8,4.6,0,6.4L2.7,171.7 c-1.8,1.8-2.7,4.6-2.7,6.4s0.9,4.6,2.7,6.4l12.8,12.8c1.8,1.8,4.6,2.7,6.4,2.7s4.6-0.9,6.4-2.7l68.5-68.5c1.8-1.8,4.6-1.8,6.4,0 l68.5,68.5c1.8,1.8,4.6,2.7,6.4,2.7s4.6-0.9,6.4-2.7l12.8-12.8c1.8-1.8,2.7-4.6,2.7-6.4s-0.9-4.6-2.7-6.4L128.8,103.2z"/>
</svg>