<svg xmlns="http://www.w3.org/2000/svg" viewBox="0 120.9 595.3 607">
	<polygon fill="#FFF" stroke="#4E5356" stroke-width="13" stroke-miterlimit="10" points="564.2,547.8 289.8,716.7 17.9,543.9 19,543.3 292.2,375 "/>
	<polygon fill="#FFF" stroke="#4E5356" stroke-width="13" stroke-miterlimit="10" points="561.8,468.8 288.2,641.6 16.9,465 17.7,464.5 290.6,292.2 "/>
	<polygon fill="#FFF" stroke="#4E5356" stroke-width="13" stroke-miterlimit="10" points="576.9,387.5 302.5,556.6 30.5,383.7 31.6,383.2 304.7,214.8 "/>
	<polygon fill="#FFF" stroke="#4E5356" stroke-width="13" stroke-miterlimit="10" points="574.4,308.6 300.8,481.4 29.4,304.9 30.3,304.3 303.2,132 "/>
	<path    fill="#FFF" stroke="#4E5356" stroke-width="13" stroke-miterlimit="10" d="M556.6,471.2"/>
	<line    fill="none" stroke="#4E5356" stroke-width="11" stroke-miterlimit="10" x1="12.1" y1="464.8" x2="12.8" y2="543.9"/>
	<line    fill="none" stroke="#4E5356" stroke-width="13" stroke-miterlimit="10" x1="288" y1="636.2" x2="289.6" y2="717.8"/>
	<line    fill="none" stroke="#4E5356" stroke-width="13" stroke-miterlimit="10" x1="300.6" y1="475.8" x2="302.1" y2="557.5"/>
	<line    fill="none" stroke="#4E5356" stroke-width="11" stroke-miterlimit="10" x1="24.7"  y1="304.7" x2="25.3"  y2="383.7"/>
	<line    fill="none" stroke="#4E5356" stroke-width="11" stroke-miterlimit="10" x1="566.3" y1="468.6" x2="568.9" y2="548.2"/>
	<line    fill="none" stroke="#4E5356" stroke-width="11" stroke-miterlimit="10" x1="579.3" y1="308.6" x2="581.3" y2="388"/>
</svg>