<svg xmlns="http://www.w3.org/2000/svg" viewBox="0 0 346 316">
	<path stroke="#4E5356" stroke-width="3" stroke-miterlimit="10" fill="#4E5356" d="M134.8,166.8c-0.5-1.5-1.4-3-1.3-4.6 c0-2,0.2-4.6,1.4-5.7c1.2-1.1,4.5-1.4,5.7-0.5c4.7,3.5,7.4,0.6,10.3-2.5c-0.5-1.5-1.3-3-1.3-4.6c0-2,0.1-4.6,1.3-5.7 c1.2-1.1,4.4-1.4,5.7-0.5c4.6,3.1,7.5,1.2,10.3-2.6c-0.5-3.3-3.7-7.3,0.2-10.5c3.7-3,7,0.4,10.4,1.9c1.8-1.5,3.7-3.1,5.6-4.7 c-0.8-3.6-3.7-7.4,0-10.5c3.8-3.2,7.1,0.6,10.8,1.8c1-0.8,2-1.9,3.1-2.6c2.1-1.3,2.3-2.7,1.4-5c-1.1-2.6-1.9-5.4,0.6-7.6 c2.7-2.4,5.4-0.9,8,0.4c0.9,0.4,1.7,0.9,2.8,1.5c0.9-0.8,1.8-1.6,2.8-2.3c2-1.4,3.1-2.8,1.7-5.5c-1.2-2.5-1.7-5.4,0.9-7.6 c2.6-2.1,5.4-1,7.7,0.6c2.4,1.7,3.9,0.8,5.8-0.8c1.9-1.6,2.8-2.8,1.9-5.6c-0.7-2.1-0.4-5.3,0.7-7.2c0.7-1.1,4.6-1.5,5.9-0.5 c4.6,3.1,7.3,0.8,10-2.6c-0.3-3.5-3.7-7.5,0.3-10.6c3.7-2.9,7,0.5,10.5,2c2.4-6.3,5.3-12.1,4.1-19.2c-0.9-5.3-1.1-10.7-1.4-16 c-0.3-4.8-0.2-9.6,3.1-13.5c4.2-4.9,9.6-6.4,15.9-4.9c8,1.9,14.8,6,21.1,11c16.6,13.3,29.5,29.4,36.2,49.9 c1.3,3.8,1.9,8.1,1.8,12.1c-0.1,9.8-7.6,16.1-17.3,14.3c-8-1.5-15.7-4.2-23.6-5.9c-6.1-1.3-12.1-0.2-17.6,3 c-1.1,0.6-2.1,2.3-2.2,3.5c-0.6,12.5-3.6,15.3-14.7,14.7c-1.8,3.9-2.7,8.5-5.4,10.9c-2.7,2.3-7.4,2.4-11.1,3.4 c-1.3,2.9-2.1,7.6-4.9,9.9c-2.7,2.3-7.4,2.4-11.1,3.4c-1.5,3.1-2.4,7.7-5.2,10.1c-2.7,2.3-7.5,2.2-11.7,3.3 c-1.3,10.7-4.5,13.4-14.8,12.3c-1.9,4-2.7,8.6-5.5,11c-2.7,2.3-7.4,2.3-11.7,3.4c-1.4,10.6-4.3,13-14.9,12.3 c-1.8,3.9-2.6,8.5-5.3,10.8c-2.7,2.4-7.4,2.5-11.3,3.6c-1.3,2.8-2.3,7-4.7,9.9c-2.8,3.4-7.4,3-10.7,2.4c-1.9,4-2.9,8.6-5.7,11.1 c-2.7,2.3-7.4,2.3-11.6,3.4c-1.5,10.7-4.9,13.4-15.9,12.1c-2,12.1-5,14.6-15,13.5c-2,4-3,8.8-6,11.2c-2.9,2.3-7.7,2.1-12.1,3.1 c-1.9,11.2-7.2,14.1-19.1,10c-1.2-0.4-2.9-0.3-4.2,0.2c-12.1,4.7-24.1,9.5-36.2,14.1c-1.1,0.4-2.5,0.2-3.8,0.3 c0.3-1.3,0.2-2.8,0.9-3.9c5.9-9.7,12-19.3,17.8-29c0.8-1.3,0.7-3.4,0.3-5c-0.7-2.8-2.6-5.9,0.1-7.9c1.6-1.2,4.7-0.3,8.2-0.4 c1.2-1.3,3.2-3.6,5.5-6.2c-0.4-1.6-1.1-3.5-1.4-5.4c-0.8-4.8,2.1-7.2,6.7-5.8c0.7,0.2,1.4,0.5,2.1,0.9c3.2,1.6,6.4,0.7,8.3-2.3 c0.3-0.5,0.2-1.3,0.1-2c-0.1-0.7-0.7-1.4-0.7-2.1c0.3-2.5-0.1-5.7,1.3-7.1c1.2-1.1,4.7-0.6,6.8,0.2c2.3,0.9,3.9,1.9,6.2-0.2 c2.1-1.9,3.1-3.4,1.8-6.2c-1.1-2.4-1.5-5.7,1.1-7.1c1.8-1,4.8-0.6,7,0.2c3.6,1.2,6.3,0.9,8.3-2.2c0.4-0.6,0.3-1.6,0.2-2.4 c-0.2-1.3-0.9-2.6-1.1-4c-0.6-4.7,2.3-7.1,6.9-5.7c0.7,0.2,1.5,0.4,2.1,0.9c2.4,2.1,4.2,1.1,6.4-0.7c2.3-1.8,2.2-3.4,1.3-5.7 c-1-2.5-1.5-5.3,1-7.3c2.4-2,5.1-1.2,7.3,0.4c2.6,1.8,4.2,1,6.5-0.7c2.2-1.8,2-3.3,1.5-5.7c-0.5-2.3-0.2-5.3,1-7.1 c0.7-1,4.2-0.9,6.1-0.3C130.4,171.4,130.3,171.6,134.8,166.8z M288.5,69.5c3.2,2.9,9.2,8.9,15.7,14.2c5.5,4.5,11.7,8.1,18.9,9.4 c7.8,1.4,12.2-2.1,12-10c0-3.2-0.7-6.5-1.5-9.6c-2.7-9.8-7.8-18.3-13.8-26.4c-8.5-11.6-18.4-21.8-31.2-28.5 c-4.2-2.2-9.1-3.5-13.8-4.1c-5-0.6-8.1,2.4-8.4,7.4c-0.3,3.5,0.1,7.3,0.9,10.7C270.5,45.5,277.8,56.1,288.5,69.5z M306,90.6 c-17.5-13-30.8-29.2-40.3-49.7c0,1.9-0.3,2.7-0.1,3.5c2.1,7.9-1.8,14.6-4,21.7c-0.7,2.1-1.8,4.6-1.2,6.5 c2.4,7.8,7.5,13.7,14.7,17.6c1.2,0.6,2.9,0.9,4.2,0.6c8.1-2,16.2-4.1,24.5-0.6C304.6,90.4,305.3,90.4,306,90.6z M152.5,145.4 c0.8,2.6,1.2,4.6,2,6.3c5.1,9.8,12.7,17.2,22.4,22.3c3,1.5,6.6,2.5,9.9,2.8c5,0.4,7.9-4,6.4-9.1c-4.4,4.4-9.4,4.1-14.5,1.9 c-1.5-0.6-3.7-2.8-3.5-3.4c1.2-2.6,3.1-0.6,4.7,0c5.4,2,7.8,1.6,10.2-1.2c-7.3-6.7-14.5-13.4-22.1-20.5c-1,0.9-2.9,2.2-4.6,3.9 c-0.6,0.6-0.5,1.9-0.6,2.9c-0.1,1.2-0.2,2.4-0.2,3.6c-1.1-0.7-2.3-1.3-3.3-2.3c-0.6-0.6-0.8-1.6-0.8-2.4 C158.6,146.7,156.2,146.2,152.5,145.4z M82,216.3c0.3,0.1,0.7,0.2,1,0.3c-0.3,1.7-0.7,3.5-1,5.2c-1.2-1.6-3.3-3.1-3.6-4.9 c-0.6-3.4-2.6-4-6.3-4.4c1,2.8,1.6,5.2,2.7,7.3c4.1,7.5,9.8,13.7,17,18.1c4.3,2.6,9.1,4.7,14,5.6c5.4,1.1,8.6-3.4,7.4-9.1 c-5.1,5-10.7,4-16.3,1.3c-0.9-0.4-1.3-1.8-1.9-2.7c1.1-0.2,2.2-0.7,3.2-0.6c1.2,0.1,2.3,0.9,3.5,1.2c3.5,1,6.6,0.8,8.4-1.7 c-7.4-6.9-14.7-13.6-22.1-20.5C86.3,212.7,84.1,214.5,82,216.3z M129.4,220.8c-4.7,4.6-9.7,4.4-14.9,2.3c-1.8-0.7-5.1-1.1-4-3.8 c1.1-2.8,3.4-0.2,5.1,0.3c5.4,2,8,1.6,10.2-1.3c-7.3-6.8-14.5-13.5-22-20.5c-1.2,1-3,2.4-4.6,3.9c-0.5,0.5-0.6,1.6-0.7,2.5 c-0.2,1.4-0.2,2.8-0.3,4.2c-1.2-1.1-2.4-2.1-3.4-3.2c-0.4-0.4-0.5-1.2-0.5-1.8c-0.2-3.4-2.5-4-6-4.2c0.9,2.5,1.2,4.9,2.3,6.6 c2.9,4.2,5.8,8.5,9.3,12.2c5.4,5.6,11.7,10.1,19.5,12C126.1,231.6,130.4,227.5,129.4,220.8z M216.7,92.2c1.1,2.9,1.6,5.2,2.7,7.2 c4.2,7.9,10.3,14.2,17.8,18.8c3.7,2.3,8,4.1,12.3,5c6,1.2,9.3-2.7,8.3-9c-4.6,4.4-9.8,4.2-15,1.8c-1.5-0.7-3.9-3.1-3.7-3.6 c1.4-2.8,3.3-0.4,4.9,0.2c5.7,2,7.9,1.7,10.8-1.8c-3.9-3-8.1-5.8-11.7-9.2c-3.5-3.4-6.4-7.5-9.7-11.4c-2.6,2.2-4.8,4-6.9,5.8 c0.3,0.6,0.6,1.1,0.6,1.6c0,1.2-0.2,2.4-0.3,3.6c-1.1-0.7-2.2-1.4-3.1-2.3c-0.5-0.5-0.7-1.4-0.8-2.1 C222.9,93.4,220.6,92.6,216.7,92.2z M209.6,154.1c-4.7,4.7-9.8,4.2-14.9,2.1c-1.7-0.7-5.1-0.9-4-3.8c1.2-2.9,3.4-0.3,5,0.3 c5.6,2.1,8.2,1.7,10.9-1.8c-3.9-3.1-8-5.9-11.7-9.3c-3.6-3.3-6.7-7.2-10.3-11.1c-1.6,1.3-3.4,2.6-4.9,4.2c-0.6,0.6-0.7,1.8-0.8,2.8 c-0.2,1.3-0.2,2.6-0.3,3.9c-1.1-0.9-2.4-1.8-3.4-2.8c-0.5-0.5-0.6-1.4-0.6-2.1c-0.2-3.5-2.5-3.9-6-4.1c0.7,2.2,1,4,1.8,5.6 c3.6,7.8,9.5,13.7,16.3,18.7c4.5,3.4,9.4,6.2,15.2,6.7C207.6,163.9,210.5,160.5,209.6,154.1z M161.6,194 c-5.3,5.2-10.8,4.4-16.3,1.8c-1-0.5-1.6-2-2.4-3.1c1.2-0.1,2.4-0.4,3.6-0.2c1.3,0.2,2.6,0.9,3.9,1.3c3.3,0.9,6.2,0.3,7.7-1.9 c-7.4-6.9-14.7-13.7-22.1-20.5c-1.7,1.4-3.8,3.2-5,4.2c-0.4,2.7-0.7,4.3-0.9,5.9c-1.2-1.3-2.5-2.6-3.7-4c-0.2-0.2-0.2-0.7-0.2-1.1 c-0.4-3.2-2.6-3.7-6-3.7c0.8,2.3,1,4.4,2.1,6c3.1,4.5,6.2,9.1,9.9,13c4.8,5.2,10.6,9,17.4,11.2C157.3,205.3,161.9,202.1,161.6,194z M211.5,108.5c-0.2,3-0.1,6.4-0.4,6.4c-3.3,0.4-3.2-2.7-4.1-4.6c-0.1-0.1-0.1-0.2-0.1-0.4c-0.2-3.4-2.5-4-5.8-4.2 c0.5,1.9,0.5,3.6,1.3,4.9c2.4,3.9,4.7,8,7.7,11.4c5.4,6.3,11.9,11.3,20,14c7.8,2.6,12.5-0.5,11.9-8.7c-4.4,4.6-9.5,4.4-14.6,2.3 c-1.7-0.7-5.2-0.8-3.9-3.7c1.2-2.8,3.5-0.3,5.1,0.3c5.3,1.8,7.7,1.4,9.9-1.4c-7.3-6.8-14.5-13.5-21.9-20.4 C214.9,105.7,212.8,107.4,211.5,108.5z M142.6,204.5c-4.1-3.1-8.3-5.8-11.9-9.2c-3.6-3.5-6.6-7.7-9.8-11.6c-2.7,2.2-4.8,4-6.8,5.7 c0.1,0.5,0.3,0.9,0.3,1.2c0,1.4-0.1,2.8-0.1,4.2c-1.2-1-2.4-2-3.5-3.1c-0.4-0.4-0.5-1.2-0.5-1.8c-0.3-3.2-2.4-3.9-6-4.2 c0.8,2.6,1.2,4.7,2.2,6.6c4.3,8,10.2,14.5,17.9,19.2c4.1,2.4,8.7,4.4,13.4,5.2c5.4,1,8.7-3.5,7.3-8.9c-6.5,4.5-13.4,4.1-20-1.2 c1.5-2.1,3.1-2.2,5.4-1.1C134.6,207.6,138.9,209,142.6,204.5z M222.5,138.3c-7.4-6.9-14.8-13.7-22.3-20.6c-1.1,0.9-2.9,2.1-4.3,3.7 c-0.6,0.7-0.6,2-0.8,3.1c-0.2,1.2-0.2,2.4-0.3,3.6c-1.1-0.8-2.3-1.4-3.2-2.3c-0.5-0.6-0.8-1.6-0.9-2.4c-0.2-3.5-2.5-3.9-6.2-4.2 c1,2.8,1.6,5.2,2.7,7.3c5.1,9,12.3,16,21.5,20.8c3.2,1.7,7,2.7,10.7,2.9c4.9,0.3,7.4-4,6.1-8.8c-5.3,4-12.3,4.2-17.7,0.4 c-0.7-0.5-1-1.8-1.4-2.7c1.1-0.3,2.2-0.8,3.2-0.7c1,0.1,2,1,3,1.4C216.4,140.9,220.1,141.5,222.5,138.3z M81.1,261.1 c-5.8,4.1-12,4.5-16.9,1.1c-0.7-0.5-1-1.7-1.5-2.6c1-0.2,2-0.7,2.9-0.6c0.9,0.1,1.8,0.8,2.8,1.1c3.8,1.2,7.4,1.6,9.5-1.4 c-7.4-6.8-14.7-13.5-22.4-20.6c-1,0.9-2.9,2.2-4.6,3.9c-0.6,0.6-0.4,1.9-0.5,2.9c-0.1,1.4,0,2.8-0.1,4.2c-1.2-0.9-2.5-1.7-3.5-2.8 c-0.6-0.7-0.9-1.8-1-2.8c-0.2-3.4-2.5-3.7-5.9-4.2c0.6,2.2,0.9,4,1.7,5.6c3.7,7.9,9.4,14.2,16.6,18.9c4.3,2.8,9.2,5.2,14.1,6.4 C78.4,271.6,81.7,267.8,81.1,261.1z M97.1,247.7c-4.9,4.9-10.4,4.2-15.9,1.6c-1.2-0.6-1.9-2.1-2.9-3.2c1.4-0.1,2.8-0.4,4.2-0.2 c1.3,0.2,2.6,0.9,3.9,1.3c3.3,0.9,6.1,0.3,7.6-1.9c-7.4-6.9-14.7-13.6-22.2-20.4c-1.6,1.3-3.7,3.1-4.9,4.1 c-0.2,2.9-0.2,6.2-0.5,6.3c-3.2,0.4-3.2-2.6-4.2-4.7c-0.1-0.1-0.1-0.2-0.1-0.4c-0.2-3.4-2.4-4.1-6.2-4.1c1.1,2.9,1.8,5.4,3,7.6 c3.8,7,9.2,12.9,16,17c4.4,2.7,9.2,5,14.2,6.1C94.7,258.1,98,254,97.1,247.7z M177.6,180.9c-7.2,5.2-15.8,4-24.9-3.8 c2.6-0.1,5.2,0.4,7.7,1.1c1.4,0.4,2.8,1.1,4.1,1.6c4.9,1.8,7.2,1.3,9.5-1.5c-7.3-6.8-14.5-13.5-22-20.5c-1,0.9-2.9,2.1-4.4,3.8 c-0.6,0.7-0.6,2.1-0.8,3.1c-0.2,1.1-0.3,2.2-0.4,3.3c-1-0.6-2.2-1.1-3.1-2c-0.6-0.5-0.8-1.6-0.9-2.4c-0.2-3.4-2.3-4.3-6-4.4 c0.7,2.3,1,4.2,1.8,5.9c3.6,7.3,8.9,13.4,15.6,17.9c4.5,3,9.5,5.6,14.7,7C174.7,191.6,178.2,187.8,177.6,180.9z M64.2,275.2 c-0.5,0.3-0.9,0.5-1.2,0.8c-4.3,3.6-9.1,2.8-13.8,1.1c-0.7-0.3-1.1-1.6-1.6-2.5c0.9-0.3,1.9-0.8,2.8-0.9c1,0,1.9,0.5,2.9,0.7 c3.7,0.8,6.8,0,8.5-2.5c-7.5-6.9-14.7-13.6-22.3-20.6c-0.6,0.7-2,2-3,3.5c-3.2,4.5-3.1,4.6-7.8,2.2c-0.4-0.2-0.8-0.3-1.6-0.6 c0.1,0.9,0,1.4,0.2,1.8c0.4,1.1,0.7,2.2,1.3,3.1c5.6,9.1,13,16.1,22.9,20.1c1.9,0.8,4.1,1.2,6.2,1.2 C62.2,282.9,64.4,280.2,64.2,275.2z M249,77.1c-1.2,1-2.3,2.2-3.5,2.9c-3.3,1.9-2.8,4-0.8,6.6c3.9,5,8.4,9.2,14.1,12 c6.9,3.3,11,2.3,15.8-4.2c-0.8-0.5-1.6-1.1-2.5-1.6c-8.7-5.3-13.9-13.4-17-22.9c-1-3.1-2.5-4.1-5.8-4.4c0.8,5.8,2.8,10.2,7.4,13.4 c0.8,0.6,1.1,2.1,1.6,3.1c-1.2,0-2.7,0.4-3.6-0.2C252.8,80.6,251.2,78.9,249,77.1z M12,293.3c0.2,0.2,0.3,0.4,0.5,0.6 c10.1-4,20.3-8,30.3-11.9c-5.2-4.8-10-9.2-14.9-13.8c-0.2,0.3-0.7,0.7-1,1.2C21.9,277.3,16.9,285.3,12,293.3z M232.9,78.7 c0.9,2.7,1.3,4.9,2.3,6.8c4.3,8.1,10.4,14.7,18.2,19.4c3.8,2.3,8.3,4.1,12.7,5c5.7,1.1,8.9-2.8,7.8-9.1c-5,4.9-10.5,4-16,1.5 c-6.3-2.8-11.4-7.1-15.5-12.6c-1.4-1.9-2.9-4-3.3-6.2C238.6,80.3,236.8,79.3,232.9,78.7z"/>
	<path stroke="#4E5356" stroke-width="3" stroke-miterlimit="10" fill="#4E5356" d="M304,68.9c-0.3,1.9-0.3,3.1-0.8,4.2 c-0.3,0.8-1.1,1.4-1.7,2.2c-0.8-0.7-2-1.2-2.2-2c-0.8-3.4-1.2-6.8-1.8-10.2c-0.5-0.2-0.8-0.4-1.2-0.5c-2.5-0.2-6.2,0.6-7.4-0.8 c-3.3-3.7-5.5-8.2-8-12.6c-0.2-0.4,0.8-2,1.7-2.5c0.7-0.5,1.9-0.2,3.7-0.4c-3.5-3-6.5-5.4-9.3-8.1c-0.9-0.8-1-2.4-1.5-3.7 c1.3,0.1,2.8,0,4,0.5c1.2,0.5,2.2,1.5,3.9,1.9c-0.9-1.5-2-2.9-2.7-4.5c-0.4-0.9-0.4-2.6,0.2-3.2c2.4-2.5,8.7-1.8,10.7,1.1 c1.7,2.5,3.4,5.1,5.5,8.4c0.4-2.1,0.5-3.4,0.9-4.4c0.3-0.7,1.3-1.7,1.9-1.7c0.6,0,1.6,1.1,1.8,1.8c0.7,3.5,1.3,7.1,1.8,10.5 c0.5,0.2,0.7,0.5,0.9,0.4c5.8-1.5,9.4,1,11.7,6.2c0.5,1.2,1.6,2.3,2.2,3.5c3.1,5.4,3,5.6-3.3,6.9c3.1,2.7,6.1,5.1,8.8,7.8 c0.9,0.9,1,2.4,1.5,3.7c-1.3-0.2-2.7-0.1-3.9-0.6c-1.3-0.5-2.5-1.5-4.4-2.8c1.3,2.2,1.9,3.6,2.8,4.8c1.9,2.5,1,3.8-1.6,4.7 c-4.4,1.5-7.5,0.3-10-3.7C307.1,73.5,305.7,71.5,304,68.9z M286.1,31.5c-0.3,0.3-0.6,0.6-0.8,0.9c1.9,3,3.8,6,5.8,9 c2.8,4.4,1.1,8.3-3.9,8.8c-0.3,0-0.6,0.2-1.3,0.5c1.4,2.3,2.6,4.7,4.3,6.7c0.7,0.9,2.4,1.7,3.4,1.5c6.2-1.4,9.4,3,12.7,6.8 c2.2,2.5,3.6,5.7,5.6,8.4c0.8,1.1,2.3,1.6,3.4,2.4c0.3-0.3,0.5-0.7,0.8-1c-2-3-4-6-5.9-9c-2.8-4.5-1.1-8.1,4-8.7 c0.3,0,0.6-0.3,1.1-0.6c-0.9-1.5-2-2.9-2.7-4.5c-1.4-3-3.5-4.2-6.9-3.5c-1.3,0.3-3.1,0.4-3.9-0.3c-2.7-2.3-5.3-4.8-7.6-7.5 c-1.8-2.2-3-4.9-4.7-7.2C288.7,32.9,287.3,32.3,286.1,31.5z"/>
	<path stroke="#4E5356" stroke-width="3" stroke-miterlimit="10" fill="none"    d="M288.5,69.5c-10.7-13.4-17.9-24-21.1-36.8 c-0.9-3.4-1.2-7.2-0.9-10.7c0.4-5,3.4-8,8.4-7.4c4.7,0.6,9.6,1.9,13.8,4.1c12.8,6.8,22.7,17,31.2,28.5c5.9,8.1,11.1,16.6,13.8,26.4 c0.9,3.1,1.5,6.4,1.5,9.6c0.1,7.9-4.3,11.5-12,10c-7.2-1.3-13.4-4.9-18.9-9.4C297.7,78.4,291.6,72.4,288.5,69.5z M304,68.9 c1.7,2.6,3.1,4.6,4.4,6.7c2.5,4.1,5.6,5.2,10,3.7c2.6-0.9,3.5-2.2,1.6-4.7c-0.9-1.2-1.6-2.7-2.8-4.8c2,1.3,3.1,2.3,4.4,2.8 c1.2,0.5,2.6,0.4,3.9,0.6c-0.5-1.3-0.6-2.9-1.5-3.7c-2.7-2.7-5.7-5.1-8.8-7.8c6.3-1.3,6.3-1.4,3.3-6.9c-0.7-1.2-1.7-2.2-2.2-3.5 c-2.3-5.2-5.9-7.7-11.7-6.2c-0.2,0-0.4-0.2-0.9-0.4c-0.6-3.4-1.1-6.9-1.8-10.5c-0.2-0.7-1.1-1.8-1.8-1.8c-0.6,0-1.6,0.9-1.9,1.7 c-0.5,1.1-0.5,2.3-0.9,4.4c-2.2-3.3-3.8-5.9-5.5-8.4c-2-2.9-8.3-3.6-10.7-1.1c-0.6,0.6-0.5,2.3-0.2,3.2c0.6,1.6,1.8,3,2.7,4.5 c-1.6-0.4-2.6-1.4-3.9-1.9c-1.2-0.5-2.6-0.4-4-0.5c0.5,1.2,0.6,2.8,1.5,3.7c2.8,2.7,5.8,5.1,9.3,8.1c-1.8,0.1-3-0.1-3.7,0.4 c-0.8,0.5-1.9,2.1-1.7,2.5c2.4,4.3,4.7,8.9,8,12.6c1.2,1.4,4.9,0.6,7.4,0.8c0.3,0,0.7,0.2,1.2,0.5c0.6,3.4,1,6.9,1.8,10.2 c0.2,0.8,1.4,1.4,2.2,2c0.6-0.7,1.4-1.3,1.7-2.2C303.7,72.1,303.7,70.8,304,68.9z"/>
	<path stroke="#4E5356" stroke-width="3" stroke-miterlimit="10" fill="none"    d="M306,90.6c-0.7-0.2-1.5-0.2-2.1-0.5 c-8.3-3.5-16.4-1.3-24.5,0.6c-1.3,0.3-3,0-4.2-0.6c-7.2-3.9-12.2-9.9-14.7-17.6c-0.6-1.9,0.5-4.4,1.2-6.5c2.2-7.1,6.1-13.8,4-21.7 c-0.2-0.8,0-1.6,0.1-3.5C275.2,61.4,288.5,77.6,306,90.6z"/>
	<path stroke="#4E5356" stroke-width="3" stroke-miterlimit="10" fill="none"    d="M152.5,145.4c3.7,0.7,6.1,1.3,6.1,4.6 c0,0.8,0.3,1.9,0.8,2.4c0.9,0.9,2.2,1.5,3.3,2.3c0.1-1.2,0.1-2.4,0.2-3.6c0.1-1,0-2.3,0.6-2.9c1.6-1.7,3.5-3.1,4.6-3.9 c7.6,7,14.8,13.7,22.1,20.5c-2.4,2.9-4.8,3.3-10.2,1.2c-1.6-0.6-3.5-2.6-4.7,0c-0.2,0.5,2,2.8,3.5,3.4c5.1,2.2,10.2,2.5,14.5-1.9 c1.5,5.1-1.4,9.4-6.4,9.1c-3.4-0.2-6.9-1.2-9.9-2.8c-9.8-5-17.4-12.4-22.4-22.3C153.7,150,153.3,148.1,152.5,145.4z"/>
	<path stroke="#4E5356" stroke-width="3" stroke-miterlimit="10" fill="none"    d="M82,216.3c2.2-1.8,4.3-3.6,5.9-4.9 c7.5,6.9,14.7,13.6,22.1,20.5c-1.8,2.5-4.9,2.8-8.4,1.7c-1.2-0.4-2.3-1.1-3.5-1.2c-1-0.1-2.1,0.4-3.2,0.6c0.6,0.9,1,2.3,1.9,2.7 c5.6,2.7,11.2,3.7,16.3-1.3c1.2,5.7-2,10.2-7.4,9.1c-4.9-1-9.7-3-14-5.6c-7.2-4.4-12.9-10.6-17-18.1c-1.1-2.1-1.7-4.5-2.7-7.3 c3.7,0.4,5.7,1,6.3,4.4c0.3,1.8,2.3,3.3,3.6,4.9c0.3-1.7,0.7-3.5,1-5.2C82.6,216.5,82.3,216.4,82,216.3z"/>
	<path stroke="#4E5356" stroke-width="3" stroke-miterlimit="10" fill="none"    d="M129.4,220.8c1,6.7-3.3,10.8-10,9.2 c-7.8-1.9-14.1-6.4-19.5-12c-3.5-3.7-6.4-7.9-9.3-12.2c-1.2-1.7-1.5-4-2.3-6.6c3.6,0.1,5.8,0.8,6,4.2c0,0.6,0.2,1.4,0.5,1.8 c1.1,1.2,2.3,2.2,3.4,3.2c0.1-1.4,0.1-2.8,0.3-4.2c0.1-0.9,0.2-2,0.7-2.5c1.6-1.6,3.4-2.9,4.6-3.9c7.5,6.9,14.7,13.7,22,20.5 c-2.2,2.8-4.8,3.3-10.2,1.3c-1.6-0.6-3.9-3.1-5.1-0.3c-1.1,2.7,2.2,3.1,4,3.8C119.7,225.2,124.7,225.4,129.4,220.8z"/>
	<path stroke="#4E5356" stroke-width="3" stroke-miterlimit="10" fill="none"    d="M216.7,92.2c4,0.4,6.2,1.3,6.3,4.7 c0,0.7,0.3,1.6,0.8,2.1c0.9,0.9,2.1,1.5,3.1,2.3c0.1-1.2,0.3-2.4,0.3-3.6c0-0.5-0.3-0.9-0.6-1.6c2.1-1.8,4.3-3.6,6.9-5.8 c3.3,3.9,6.1,8,9.7,11.4c3.6,3.4,7.8,6.2,11.7,9.2c-2.9,3.5-5.1,3.8-10.8,1.8c-1.6-0.6-3.5-3-4.9-0.2c-0.2,0.5,2.2,2.9,3.7,3.6 c5.2,2.3,10.4,2.5,15-1.8c0.9,6.4-2.4,10.2-8.3,9c-4.3-0.9-8.6-2.7-12.3-5c-7.5-4.7-13.6-11-17.8-18.8 C218.3,97.4,217.7,95.1,216.7,92.2z"/>
	<path stroke="#4E5356" stroke-width="3" stroke-miterlimit="10" fill="none"    d="M209.6,154.1c0.9,6.4-2,9.8-7.7,9.4 c-5.8-0.5-10.6-3.3-15.2-6.7c-6.8-5-12.6-10.9-16.3-18.7c-0.8-1.6-1.1-3.4-1.8-5.6c3.4,0.2,5.8,0.6,6,4.1c0,0.7,0.2,1.6,0.6,2.1 c1,1.1,2.2,1.9,3.4,2.8c0.1-1.3,0.1-2.6,0.3-3.9c0.1-1,0.2-2.2,0.8-2.8c1.5-1.6,3.4-2.9,4.9-4.2c3.6,3.9,6.7,7.7,10.3,11.1 c3.6,3.4,7.7,6.2,11.7,9.3c-2.6,3.5-5.2,3.9-10.9,1.8c-1.6-0.6-3.9-3.2-5-0.3c-1.2,2.9,2.3,3.1,4,3.8 C199.8,158.3,204.9,158.8,209.6,154.1z"/>
	<path stroke="#4E5356" stroke-width="3" stroke-miterlimit="10" fill="none"    d="M161.6,194c0.3,8.2-4.4,11.4-11.8,8.9 c-6.8-2.2-12.6-6.1-17.4-11.2c-3.7-4-6.8-8.6-9.9-13c-1.1-1.5-1.3-3.6-2.1-6c3.4,0,5.5,0.5,6,3.7c0.1,0.4,0,0.8,0.2,1.1 c1.2,1.4,2.4,2.6,3.7,4c0.3-1.6,0.5-3.2,0.9-5.9c1.2-1,3.3-2.8,5-4.2c7.3,6.8,14.6,13.6,22.1,20.5c-1.6,2.2-4.4,2.8-7.7,1.9 c-1.3-0.4-2.6-1.1-3.9-1.3c-1.2-0.2-2.4,0.1-3.6,0.2c0.8,1.1,1.3,2.6,2.4,3.1C150.8,198.3,156.3,199.2,161.6,194z"/>
	<path stroke="#4E5356" stroke-width="3" stroke-miterlimit="10" fill="none"    d="M211.5,108.5c1.3-1.1,3.4-2.8,4.9-4.1 c7.4,6.9,14.6,13.6,21.9,20.4c-2.2,2.9-4.6,3.3-9.9,1.4c-1.6-0.6-3.9-3.1-5.1-0.3c-1.2,3,2.3,3,3.9,3.7c5.1,2.1,10.1,2.3,14.6-2.3 c0.6,8.1-4.2,11.3-11.9,8.7c-8-2.7-14.5-7.7-20-14c-3-3.5-5.3-7.5-7.7-11.4c-0.8-1.3-0.8-3-1.3-4.9c3.4,0.2,5.6,0.8,5.8,4.2 c0,0.1,0,0.3,0.1,0.4c1,2,0.9,5.1,4.1,4.6C211.4,114.9,211.3,111.5,211.5,108.5z"/>
	<path stroke="#4E5356" stroke-width="3" stroke-miterlimit="10" fill="none"    d="M142.6,204.5c-3.8,4.4-8,3-12,1.1 c-2.4-1.2-3.9-1.1-5.4,1.1c6.6,5.4,13.5,5.8,20,1.2c1.3,5.4-1.9,9.9-7.3,8.9c-4.6-0.9-9.3-2.8-13.4-5.2 c-7.7-4.6-13.7-11.2-17.9-19.2c-1-1.9-1.4-4-2.2-6.6c3.5,0.3,5.7,1,6,4.2c0.1,0.6,0.2,1.4,0.5,1.8c1.1,1.1,2.3,2.1,3.5,3.1 c0-1.4,0.1-2.8,0.1-4.2c0-0.4-0.2-0.7-0.3-1.2c2.1-1.7,4.2-3.5,6.8-5.7c3.2,3.9,6.2,8.1,9.8,11.6 C134.3,198.7,138.6,201.4,142.6,204.5z"/>
	<path stroke="#4E5356" stroke-width="3" stroke-miterlimit="10" fill="none"    d="M222.5,138.3c-2.4,3.3-6.1,2.7-9.9,1.2 c-1-0.4-2-1.2-3-1.4c-1-0.1-2.1,0.4-3.2,0.7c0.5,0.9,0.7,2.2,1.4,2.7c5.4,3.8,12.4,3.6,17.7-0.4c1.4,4.8-1.2,9.1-6.1,8.8 c-3.6-0.2-7.4-1.2-10.7-2.9c-9.2-4.7-16.4-11.7-21.5-20.8c-1.2-2.1-1.7-4.5-2.7-7.3c3.6,0.3,6,0.7,6.2,4.2c0,0.8,0.3,1.9,0.9,2.4 c0.9,0.9,2.1,1.6,3.2,2.3c0.1-1.2,0.1-2.4,0.3-3.6c0.2-1.1,0.2-2.4,0.8-3.1c1.4-1.5,3.2-2.8,4.3-3.7 C207.7,124.6,215.1,131.4,222.5,138.3z"/>
	<path stroke="#4E5356" stroke-width="3" stroke-miterlimit="10" fill="none"    d="M81.1,261.1c0.5,6.7-2.8,10.5-8.6,9 c-4.9-1.2-9.8-3.6-14.1-6.4c-7.2-4.7-12.9-11-16.6-18.9c-0.7-1.6-1-3.4-1.7-5.6c3.4,0.4,5.7,0.8,5.9,4.2c0.1,1,0.4,2.1,1,2.8 c1,1.1,2.3,1.9,3.5,2.8c0-1.4,0-2.8,0.1-4.2c0.1-1-0.1-2.3,0.5-2.9c1.6-1.7,3.5-3.1,4.6-3.9c7.7,7.1,15,13.8,22.4,20.6 c-2.1,3-5.7,2.6-9.5,1.4c-0.9-0.3-1.8-1-2.8-1.1c-1-0.1-1.9,0.4-2.9,0.6c0.5,0.9,0.7,2.1,1.5,2.6C69.1,265.7,75.3,265.3,81.1,261.1 z"/>
	<path stroke="#4E5356" stroke-width="3" stroke-miterlimit="10" fill="none"    d="M97.1,247.7c0.9,6.3-2.3,10.4-8,9.1 c-5-1.1-9.9-3.4-14.2-6.1c-6.7-4.2-12.1-10-16-17c-1.2-2.2-1.9-4.7-3-7.6c3.8,0,6,0.6,6.2,4.1c0,0.1,0,0.3,0.1,0.4 c0.9,2,0.9,5,4.2,4.7c0.4,0,0.3-3.4,0.5-6.3c1.2-1,3.4-2.8,4.9-4.1c7.5,6.9,14.7,13.6,22.2,20.4c-1.5,2.2-4.4,2.8-7.6,1.9 c-1.3-0.3-2.6-1.1-3.9-1.3c-1.4-0.2-2.8,0.1-4.2,0.2c0.9,1.1,1.7,2.6,2.9,3.2C86.6,251.9,92.1,252.6,97.1,247.7z"/>
	<path stroke="#4E5356" stroke-width="3" stroke-miterlimit="10" fill="none"    d="M177.6,180.9c0.6,6.8-2.9,10.7-9,9 c-5.2-1.4-10.2-4-14.7-7c-6.7-4.5-11.9-10.6-15.6-17.9c-0.8-1.7-1.1-3.6-1.8-5.9c3.7,0.1,5.8,1.1,6,4.4c0.1,0.8,0.3,1.9,0.9,2.4 c0.8,0.8,2,1.3,3.1,2c0.1-1.1,0.2-2.2,0.4-3.3c0.2-1.1,0.1-2.4,0.8-3.1c1.5-1.6,3.4-2.9,4.4-3.8c7.5,7,14.8,13.7,22,20.5 c-2.2,2.7-4.5,3.3-9.5,1.5c-1.4-0.5-2.7-1.2-4.1-1.6c-2.5-0.7-5.1-1.1-7.7-1.1C161.8,184.9,170.4,186.1,177.6,180.9z"/>
	<path stroke="#4E5356" stroke-width="3" stroke-miterlimit="10" fill="none"    d="M64.2,275.2c0.1,5.1-2.1,7.7-6.6,7.6 c-2.1-0.1-4.3-0.5-6.2-1.2c-9.9-4.1-17.4-11.1-22.9-20.1c-0.6-0.9-0.9-2-1.3-3.1c-0.1-0.4-0.1-0.9-0.2-1.8c0.8,0.3,1.2,0.4,1.6,0.6 c4.7,2.3,4.6,2.3,7.8-2.2c1-1.5,2.4-2.7,3-3.5c7.6,7,14.9,13.7,22.3,20.6c-1.6,2.5-4.8,3.2-8.5,2.5c-1-0.2-1.9-0.7-2.9-0.7 c-0.9,0-1.9,0.6-2.8,0.9c0.5,0.9,0.9,2.2,1.6,2.5c4.7,1.7,9.5,2.5,13.8-1.1C63.3,275.6,63.8,275.5,64.2,275.2z"/>
	<path stroke="#4E5356" stroke-width="3" stroke-miterlimit="10" fill="none"    d="M249,77.1c2.1,1.8,3.8,3.6,5.7,4.8 c0.9,0.6,2.4,0.1,3.6,0.2c-0.5-1.1-0.7-2.6-1.6-3.1c-4.7-3.2-6.7-7.6-7.4-13.4c3.3,0.3,4.8,1.3,5.8,4.4c3,9.5,8.2,17.6,17,22.9 c0.8,0.5,1.6,1,2.5,1.6c-4.9,6.5-8.9,7.5-15.8,4.2c-5.7-2.8-10.2-7-14.1-12c-2-2.6-2.5-4.7,0.8-6.6C246.7,79.2,247.8,78.1,249,77.1 z"/>
	<path stroke="#4E5356" stroke-width="3" stroke-miterlimit="10" fill="none"    d="M12,293.3c4.9-8,9.9-15.9,14.9-23.9 c0.3-0.5,0.7-0.9,1-1.2c5,4.6,9.8,9,14.9,13.8c-10,3.9-20.1,7.9-30.3,11.9C12.3,293.7,12.2,293.5,12,293.3z"/>
	<path stroke="#4E5356" stroke-width="3" stroke-miterlimit="10" fill="none"    d="M232.9,78.7c4,0.5,5.7,1.6,6.3,4.8 c0.4,2.2,1.9,4.3,3.3,6.2c4,5.5,9.2,9.8,15.5,12.6c5.5,2.5,11,3.4,16-1.5c1,6.2-2.1,10.1-7.8,9.1c-4.4-0.8-8.8-2.6-12.7-5 c-7.8-4.7-13.9-11.3-18.2-19.4C234.2,83.6,233.8,81.5,232.9,78.7z"/>
	<path stroke="#4E5356" stroke-width="3" stroke-miterlimit="10" fill="none"    d="M286.1,31.5c1.1,0.8,2.6,1.4,3.4,2.4 c1.7,2.3,2.9,5,4.7,7.2c2.3,2.7,4.8,5.2,7.6,7.5c0.8,0.7,2.7,0.6,3.9,0.3c3.4-0.7,5.5,0.5,6.9,3.5c0.7,1.5,1.8,2.9,2.7,4.5 c-0.5,0.3-0.8,0.6-1.1,0.6c-5.1,0.6-6.8,4.2-4,8.7c1.9,3.1,3.9,6,5.9,9c-0.3,0.3-0.5,0.7-0.8,1c-1.2-0.8-2.6-1.3-3.4-2.4 c-2-2.7-3.4-5.9-5.6-8.4c-3.3-3.7-6.5-8.1-12.7-6.8c-1,0.2-2.7-0.6-3.4-1.5c-1.6-2-2.8-4.3-4.3-6.7c0.6-0.2,1-0.4,1.3-0.5 c5-0.5,6.7-4.4,3.9-8.8c-1.9-3-3.9-6-5.8-9C285.6,32.1,285.9,31.8,286.1,31.5z"/>
</svg>