<svg xmlns="http://www.w3.org/2000/svg" viewBox="0 0 200 200">
	<path fill="#B6C0C6" d="M100,0C44.8,0,0,44.8,0,100s44.8,100,100,100s100-44.8,100-100S155.2,0,100,0z M120.8,155 c-5.1,2-9.2,3.6-12.3,4.6c-3.1,1.1-6.6,1.6-10.7,1.6c-6.2,0-11.1-1.5-14.5-4.6c-3.5-3-5.2-6.9-5.2-11.6c0-1.8,0.1-3.7,0.4-5.6 c0.3-1.9,0.7-4,1.2-6.4l6.4-22.8c0.6-2.2,1.1-4.3,1.4-6.2c0.4-1.9,0.6-3.7,0.6-5.4c0-2.9-0.6-4.9-1.8-6.1c-1.2-1.1-3.5-1.7-6.9-1.7 c-1.7,0-3.4,0.2-5.1,0.8c-1.7,0.5-3.2,1-4.5,1.5l1.7-7c4.2-1.7,8.3-3.2,12.1-4.4c3.9-1.2,7.5-1.8,10.9-1.8c6.2,0,11,1.5,14.3,4.5 c3.3,3,5,6.9,5,11.6c0,1-0.1,2.7-0.3,5.2c-0.2,2.5-0.7,4.8-1.3,6.9l-6.4,22.7c-0.5,1.8-1,3.9-1.4,6.2c-0.4,2.3-0.6,4.1-0.6,5.3 c0,3,0.7,5.1,2,6.2c1.3,1.1,3.7,1.6,7,1.6c1.6,0,3.3-0.3,5.3-0.8c2-0.5,3.4-1,4.3-1.4L120.8,155z M119.7,62.9 c-3,2.8-6.6,4.2-10.8,4.2c-4.2,0-7.8-1.4-10.8-4.2c-3-2.8-4.5-6.2-4.5-10.1c0-3.9,1.5-7.3,4.5-10.1c3-2.8,6.6-4.2,10.8-4.2 c4.2,0,7.8,1.4,10.8,4.2c3,2.8,4.5,6.2,4.5,10.1C124.2,56.7,122.7,60.1,119.7,62.9z"/>
</svg>