<svg xmlns="http://www.w3.org/2000/svg" viewBox="0 0 200 200">
	<path fill="#B6C0C6" d="M43.7,82.7c0,0.1,0,0.3,0,0.4v59.8h9.7c3.7,0,6.8-3,6.8-6.8V89.5c0-3.7-3-6.8-6.8-6.8L43.7,82.7L43.7,82.7z"/>
	<path fill="#B6C0C6" d="M156.3,83.2c0-0.1,0-0.3,0-0.4h-9.7c-3.7,0-6.8,3-6.8,6.8v46.6c0,3.7,3,6.8,6.8,6.8h9.7V83.2z"/>
	<path fill="#B6C0C6" d="M181.1,84.9c-3.5-41.6-38.5-74.4-81.1-74.4S22.5,43.2,18.9,84.9C7.9,89.3,0,100.2,0,112.8 c0,9.7,4.6,18.3,11.7,23.8v20.3c0,11.6,9.4,21,21,21h50.2c2.7,6.8,9.4,11.7,17.1,11.7c10.2,0,18.4-8.3,18.4-18.4 s-8.3-18.4-18.4-18.4c-7.8,0-14.4,4.8-17.1,11.7H32.7c-4.1,0-7.5-3.3-7.5-7.5v-14.4c1.6,0.3,3.2,0.4,4.9,0.4h2.8V83.2 c0-0.1,0-0.3,0-0.4h-0.1c1.7-12.4,6.7-23.7,14.1-33.1H153c7.4,9.3,12.5,20.7,14.1,33.1h-0.1c0,0.1,0,0.3,0,0.4v59.8h2.8 c16.6,0,30.1-13.5,30.1-30.1C200,100.2,192.1,89.3,181.1,84.9z"/>
</svg>