<svg xmlns="http://www.w3.org/2000/svg" viewBox="12.6 330.5 1865.6 1289.7">
	<linearGradient id="SVGID_1_" gradientUnits="userSpaceOnUse" x1="30" y1="1950" x2="30" y2="1987" gradientTransform="matrix(16 0 0 -16 6.436030e-006 32408)">
		<stop  offset="0"             style="stop-color:#6C8896"/>
		<stop  offset="1.926647e-003" style="stop-color:#6D8997"/>
		<stop  offset="7.733236e-002" style="stop-color:#97ADB9"/>
		<stop  offset="0.1451"        style="stop-color:#B9CAD3"/>
		<stop  offset="0.2022"        style="stop-color:#D0DBE2"/>
		<stop  offset="0.2418"        style="stop-color:#D8E2E7"/>
		<stop  offset="0.3224"        style="stop-color:#C9D6DD"/>
		<stop  offset="0.4704"        style="stop-color:#A3B8C3"/>
		<stop  offset="0.6692"        style="stop-color:#6E8997"/>
		<stop  offset="0.9089"        style="stop-color:#2F4F5E"/>
		<stop  offset="1"             style="stop-color:#113442"/>
	</linearGradient>
	<path fill="url(#SVGID_1_)" d="M460.8,615.2c-107.2,0-193.6,132.8-193.6,297.6s86.4,297.6,193.6,297.6l41.6-1.6 c44.8,0,110.4-11.2,83.2-33.6c-59.2-48-97.6-140.8-97.6-246.4c0-155.2,84.8-281.6,190.4-281.6l-192-30.4L460.8,615.2z"/>
	<linearGradient id="SVGID_2_" gradientUnits="userSpaceOnUse" x1="42" y1="1966" x2="42" y2="1950" gradientTransform="matrix(16 0 0 -16 6.436030e-006 32408)">
		<stop  offset="0"      style="stop-color:#ED1C24"/>
		<stop  offset="0.3736" style="stop-color:#ED1C24"/>
		<stop  offset="0.4467" style="stop-color:#E51C23"/>
		<stop  offset="0.5449" style="stop-color:#D61A21"/>
		<stop  offset="0.6573" style="stop-color:#BE171D"/>
		<stop  offset="0.7804" style="stop-color:#9F0F13"/>
		<stop  offset="0.9106" style="stop-color:#7A0101"/>
		<stop  offset="1"      style="stop-color:#5E0000"/>
	</linearGradient>
	<path fill="url(#SVGID_2_)" d="M460.8,1210.4c97.6,0,188.8-105.6,182.4-256h241.6c0,156.8-110.4,256-214.4,256H460.8z"/>
	<linearGradient id="SVGID_3_" gradientUnits="userSpaceOnUse" x1="51" y1="1987" x2="51" y2="1950" gradientTransform="matrix(16 0 0 -16 6.436030e-006 32408)">
		<stop  offset="0"             style="stop-color:#B5191E"/>
		<stop  offset="2.278189e-002" style="stop-color:#C91B21"/>
		<stop  offset="4.952808e-002" style="stop-color:#DB1C23"/>
		<stop  offset="7.885586e-002" style="stop-color:#E71C24"/>
		<stop  offset="0.1154"        style="stop-color:#ED1C24"/>
		<stop  offset="0.1871"        style="stop-color:#F05139"/>
		<stop  offset="0.2455"        style="stop-color:#F2684B"/>
		<stop  offset="0.2802"        style="stop-color:#F37053"/>
		<stop  offset="0.3389"        style="stop-color:#F15F43"/>
		<stop  offset="0.4588"        style="stop-color:#EE2325"/>
		<stop  offset="0.467"         style="stop-color:#ED1C24"/>
		<stop  offset="0.5282"        style="stop-color:#E01B23"/>
		<stop  offset="0.6371"        style="stop-color:#C6181E"/>
		<stop  offset="0.7811"        style="stop-color:#9E0F13"/>
		<stop  offset="0.9528"        style="stop-color:#6C0000"/>
		<stop  offset="1"             style="stop-color:#5E0000"/>
	</linearGradient>
	<path fill="url(#SVGID_3_)" d="M993.6,1210.4l123.2-9.6c46.4,0,65.6-4.8,36.8-27.2c-65.6-52.8-116.8-158.4-160-260.8 c-64-153.6-128-297.6-256-297.6H460.8c120,0,180.8,144,241.6,297.6c59.2,147.2,134.4,297.6,240,297.6H993.6z"/>
	<linearGradient id="SVGID_4_" gradientUnits="userSpaceOnUse" x1="86" y1="1950" x2="86" y2="2000" gradientTransform="matrix(16 0 0 -16 6.436030e-006 32408)">
		<stop  offset="0"             style="stop-color:#6C8896"/>
		<stop  offset="8.691043e-004" style="stop-color:#6D8897"/>
		<stop  offset="4.922779e-002" style="stop-color:#8FA7B3"/>
		<stop  offset="9.784003e-002" style="stop-color:#AEC0CA"/>
		<stop  offset="0.1462"        style="stop-color:#C5D3DA"/>
		<stop  offset="0.1943"        style="stop-color:#D3DEE4"/>
		<stop  offset="0.2418"        style="stop-color:#D8E2E7"/>
		<stop  offset="0.3224"        style="stop-color:#C9D6DD"/>
		<stop  offset="0.4704"        style="stop-color:#A3B8C3"/>
		<stop  offset="0.6692"        style="stop-color:#6E8997"/>
		<stop  offset="0.9089"        style="stop-color:#2F4F5E"/>
		<stop  offset="1"             style="stop-color:#113442"/>
	</linearGradient>

	<path fill="url(#SVGID_4_)" d="M1209.6,1210.4c137.6,0,230.4-248,296-400c92.8-211.2,180.8-400,296-400h-275.2 c-115.2,0-201.6,187.2-292.8,400c-65.6,152-158.4,400-292.8,400H1209.6z"/>
	<path fill="#D71920" d="M276.8,1519.6h-43.2c0-6.4-4.8-22.4-12.8-49.6h-64c-8,25.6-12.8,43.2-12.8,49.6h-41.6 c0-3.2,11.2-32,32-84.8c20.8-52.8,32-83.2,32-88h51.2c0,4.8,9.6,33.6,28.8,86.4C267.2,1486,276.8,1514.8,276.8,1519.6z M212.8,1444.4c-16-46.4-24-70.4-24-73.6h-1.6c0,3.2-8,28.8-24,73.6H212.8z"/>
	<path fill="#D71920" d="M420.8,1466.8c0,35.2-30.4,52.8-89.6,52.8c-9.6,0-27.2,0-48-1.6c1.6-27.2,1.6-57.6,1.6-91.2 c0-32,0-59.2-1.6-83.2h22.4c4.8,0,11.2,0,20.8,0s17.6,0,24,0c40,0,60.8,12.8,60.8,38.4c0,19.2-9.6,32-30.4,38.4v1.6 c11.2,1.6,20.8,6.4,28.8,12.8C417.6,1444.4,420.8,1454,420.8,1466.8z M374.4,1394.8c0-16-9.6-24-30.4-24c-9.6,0-17.6,0-25.6,1.6 c1.6,9.6,1.6,24,1.6,46.4c3.2,0,6.4,0,11.2,0C360,1418.8,374.4,1410.8,374.4,1394.8z M384,1468.4c0-17.6-16-27.2-48-27.2 c-6.4,0-11.2,0-16,0c0,19.2,0,35.2,1.6,51.2c3.2,0,8,1.6,14.4,1.6c17.6,0,28.8-1.6,36.8-6.4C380.8,1484.4,384,1478,384,1468.4z"/>
	<path fill="#3E484F" d="M652.8,1519.6h-35.2c0-14.4,0-94.4,0-100.8h-3.2c-1.6,6.4-25.6,73.6-33.6,100.8h-25.6 c0,0-9.6-27.2-16-48c-8-20.8-14.4-36.8-17.6-52.8H520c0,6.4,0,22.4-1.6,48c-1.6,25.6-1.6,43.2-1.6,52.8h-32 c0-3.2,8-126.4,8-126.4h48c0,9.6,28.8,97.6,28.8,97.6h1.6c1.6-4.8,27.2-86.4,28.8-97.6h49.6L652.8,1519.6z"/>
	<path fill="#3E484F" d="M793.6,1442.8c0,4.8,0,11.2-1.6,17.6l-88,1.6c1.6,9.6,6.4,17.6,12.8,25.6c8,6.4,17.6,9.6,30.4,9.6 c14.4,0,28.8-1.6,43.2-6.4l-3.2,25.6c-12.8,4.8-28.8,6.4-46.4,6.4c-24,0-41.6-6.4-54.4-19.2c-12.8-12.8-19.2-28.8-19.2-46.4 c0-19.2,6.4-35.2,17.6-49.6c11.2-14.4,28.8-20.8,49.6-20.8c19.2,0,33.6,4.8,43.2,16C788.8,1412.4,793.6,1426.8,793.6,1442.8z M761.6,1441.2c0-20.8-9.6-30.4-27.2-30.4c-17.6,0-27.2,11.2-30.4,32L761.6,1441.2z"/>
	<path fill="#3E484F" d="M921.6,1393.2l-1.6,27.2c-12.8-1.6-27.2-1.6-40-1.6c0,12.8,0,83.2,1.6,100.8h-36.8 c3.2-17.6,3.2-88,3.2-102.4c-12.8,0-27.2,0-41.6,1.6l1.6-27.2h113.6V1393.2z"/>
	<path fill="#3E484F" d="M1054.4,1519.6l-32,1.6c-1.6-3.2-1.6-6.4-1.6-9.6h-1.6c-11.2,6.4-25.6,11.2-43.2,11.2 c-11.2,0-20.8-3.2-28.8-9.6s-11.2-14.4-11.2-24c0-12.8,6.4-24,17.6-33.6c11.2-8,32-12.8,62.4-14.4c0-1.6,0-3.2,0-4.8 c0-9.6-1.6-16-6.4-19.2c-4.8-3.2-12.8-4.8-25.6-4.8c-14.4,0-27.2,1.6-40,4.8l3.2-24c12.8-4.8,30.4-6.4,52.8-6.4 c16,0,28.8,3.2,38.4,9.6c9.6,6.4,12.8,19.2,12.8,35.2c0,3.2,0,11.2,0,20.8c0,9.6,0,16,0,19.2 C1049.6,1492.4,1051.2,1506.8,1054.4,1519.6z M1017.6,1490.8c0-11.2-1.6-22.4-1.6-30.4c-30.4,0-46.4,8-46.4,22.4 c0,11.2,6.4,16,20.8,16C1001.6,1498.8,1009.6,1497.2,1017.6,1490.8z"/>
	<path fill="#3E484F" d="M1065.6,1519.6c3.2-8,9.6-27.2,24-62.4c16-36.8,24-57.6,27.2-62.4h35.2c1.6,4.8,8,27.2,22.4,64 c14.4,38.4,20.8,57.6,22.4,62.4h-40c-1.6-4.8-4.8-17.6-12.8-46.4c-8-27.2-12.8-41.6-12.8-48h-1.6c-1.6,4.8-6.4,19.2-14.4,44.8 c-8,25.6-11.2,41.6-12.8,48H1065.6z"/>
	<path fill="#3E484F" d="M1379.5,1392.7v28.8c-6.4,0-27.2-1.6-60.8-1.6c0,17.6,1.6,81.6,3.2,100.8h-38.4 c1.6-17.6,1.6-107.2,0-126.4h96V1392.7z"/>
	<path fill="#3E484F" d="M1809.9,1392.7h-121.6c1.6,19.2,1.6,107.2,0,126.4h36.8c-1.6-17.6-3.2-83.2-3.2-100.8 c27.2,0,44.8,1.6,54.4,1.6c0,35.2,0,84.8-1.6,99.2h33.6C1808.3,1506.3,1811.5,1439.1,1809.9,1392.7z"/>
	<path fill="#3E484F" d="M1536.3,1450.3c0,19.2-6.4,36.8-17.6,51.2c-11.2,14.4-27.2,22.4-46.4,22.4c-14.4,0-24-3.2-30.4-9.6 l-1.6-1.6l1.6,67.2h-36.8c0,0,0-56,0-88c0-43.2-1.6-78.4-4.8-97.6l35.2-3.2l1.6,12.8l3.2-1.6c9.6-8,22.4-12.8,38.4-12.8 c17.6,0,32,6.4,41.6,19.2C1531.5,1418.3,1536.3,1432.7,1536.3,1450.3z M1501.1,1453.5c0-11.2-3.2-20.8-8-28.8 c-6.4-8-14.4-12.8-24-12.8c-12.8,0-22.4,3.2-27.2,11.2c0,22.4,0,48,1.6,68.8c6.4,4.8,12.8,6.4,22.4,6.4 c12.8,0,20.8-4.8,27.2-12.8C1497.9,1475.9,1501.1,1466.3,1501.1,1453.5z"/>
	<path fill="#3E484F" d="M1667.5,1392.7c0,0-40,112-44.8,126.4c-8,20.8-16,36.8-25.6,46.4c-9.6,8-24,12.8-43.2,12.8l-3.2-25.6 c11.2,0,20.8-3.2,27.2-9.6c8-6.4,11.2-14.4,11.2-25.6s-6.4-33.6-24-68.8c-16-35.2-24-54.4-24-56h35.2l32,94.4 c0,0,24-88,24-94.4H1667.5L1667.5,1392.7z"/>
</svg>