<svg xmlns="http://www.w3.org/2000/svg" viewBox="0 888 1775 214">	
	<linearGradient id="SVGID_1_" gradientUnits="userSpaceOnUse" x1="6" y1="1950" x2="6" y2="1938" gradientTransform="matrix(9.0912 0 0 9.0912 0 -16673.2227)">
		<stop  offset="0"             style="stop-color:#6C8896"/>
		<stop  offset="1.926647e-003" style="stop-color:#6D8997"/>
		<stop  offset="7.733236e-002" style="stop-color:#97ADB9"/>
		<stop  offset="0.1451"        style="stop-color:#B9CAD3"/>
		<stop  offset="0.2022"        style="stop-color:#D0DBE2"/>
		<stop  offset="0.2418"        style="stop-color:#D8E2E7"/>
		<stop  offset="0.3224"        style="stop-color:#C9D6DD"/>
		<stop  offset="0.4704"        style="stop-color:#A3B8C3"/>
		<stop  offset="0.6692"        style="stop-color:#6E8997"/>
		<stop  offset="0.9089"        style="stop-color:#2F4F5E"/>
		<stop  offset="1"             style="stop-color:#113442"/>
	</linearGradient>
	<path fill="url(#SVGID_1_)" d="M53.1,941.5c-20.4,0-35.4,25.9-35.4,55.8c0,31.3,16.3,57.1,35.4,57.1h8.2c8.2,0,20.4-1.4,15-6.8 c-10.9-9.5-17.7-27.2-17.7-47.6c0-29.9,15-53.1,35.4-53.1l-36.7-6.8h-4.1V941.5z"/>
	<linearGradient id="SVGID_2_" gradientUnits="userSpaceOnUse" x1="10" y1="1945" x2="10" y2="1950" gradientTransform="matrix(9.0912 0 0 9.0912 0 -16673.2227)">
		<stop  offset="0"      style="stop-color:#ED1C24"/>
		<stop  offset="0.3736" style="stop-color:#ED1C24"/>
		<stop  offset="0.4467" style="stop-color:#E51C23"/>
		<stop  offset="0.5449" style="stop-color:#D61A21"/>
		<stop  offset="0.6573" style="stop-color:#BE171D"/>
		<stop  offset="0.7804" style="stop-color:#9F0F13"/>
		<stop  offset="0.9106" style="stop-color:#7A0101"/>
		<stop  offset="1"      style="stop-color:#5E0000"/>
	</linearGradient>
	<path fill="url(#SVGID_2_)" d="M53.1,1055.8c17.7,0,34-20.4,34-49H132c0,29.9-20.4,49-39.5,49H53.1z"/>
	<linearGradient id="SVGID_3_" gradientUnits="userSpaceOnUse" x1="13" y1="1938" x2="13" y2="1950" gradientTransform="matrix(9.0912 0 0 9.0912 0 -16673.2227)">
		<stop  offset="0"             style="stop-color:#B5191E"/>
		<stop  offset="2.278189e-002" style="stop-color:#C91B21"/>
		<stop  offset="4.952808e-002" style="stop-color:#DB1C23"/>
		<stop  offset="7.885586e-002" style="stop-color:#E71C24"/>
		<stop  offset="0.1154"        style="stop-color:#ED1C24"/>
		<stop  offset="0.1871"        style="stop-color:#F05139"/>
		<stop  offset="0.2455"        style="stop-color:#F2684B"/>
		<stop  offset="0.2802"        style="stop-color:#F37053"/>
		<stop  offset="0.3389"        style="stop-color:#F15F43"/>
		<stop  offset="0.4588"        style="stop-color:#EE2325"/>
		<stop  offset="0.467"         style="stop-color:#ED1C24"/>
		<stop  offset="0.5282"        style="stop-color:#E01B23"/>
		<stop  offset="0.6371"        style="stop-color:#C6181E"/>
		<stop  offset="0.7811"        style="stop-color:#9E0F13"/>
		<stop  offset="0.9528"        style="stop-color:#6C0000"/>
		<stop  offset="1"             style="stop-color:#5E0000"/>
	</linearGradient>
	<path fill="url(#SVGID_3_)" d="M152.4,1055.8l23.1-1.4c8.2,0,12.2-1.4,6.8-5.4c-12.2-9.5-21.8-29.9-29.9-50.3 c-12.2-28.6-23.1-57.1-47.6-57.1H53.1c21.8,0,34,27.2,44.9,57.1c10.9,28.6,24.5,57.1,44.9,57.1H152.4z"/>
	<linearGradient id="SVGID_4_" gradientUnits="userSpaceOnUse" x1="24" y1="1950" x2="24" y2="1933" gradientTransform="matrix(9.0912 0 0 9.0912 0 -16673.2227)">
		<stop  offset="0"             style="stop-color:#6C8896"/>
		<stop  offset="8.691043e-004" style="stop-color:#6D8897"/>
		<stop  offset="4.922779e-002" style="stop-color:#8FA7B3"/>
		<stop  offset="9.784003e-002" style="stop-color:#AEC0CA"/>
		<stop  offset="0.1462"        style="stop-color:#C5D3DA"/>
		<stop  offset="0.1943"        style="stop-color:#D3DEE4"/>
		<stop  offset="0.2418"        style="stop-color:#D8E2E7"/>
		<stop  offset="0.3224"        style="stop-color:#C9D6DD"/>
		<stop  offset="0.4704"        style="stop-color:#A3B8C3"/>
		<stop  offset="0.6692"        style="stop-color:#6E8997"/>
		<stop  offset="0.9089"        style="stop-color:#2F4F5E"/>
		<stop  offset="1"             style="stop-color:#113442"/>
	</linearGradient>

	<path fill="url(#SVGID_4_)" d="M191.8,1055.8c25.9,0,42.2-47.6,54.4-76.2c17.7-40.8,34-76.2,54.4-76.2h-50.3 c-20.4,0-36.7,36.7-54.4,76.2c-12.2,28.6-28.6,76.2-54.4,76.2H191.8z"/>
	<path fill="#D71920" d="M446.3,1042.2h-36.7c0-4.1-4.1-17.7-10.9-39.5h-53.1c-6.8,21.8-10.9,35.4-10.9,39.5h-29.9 c-2.7,0-4.1-2.7-4.1-4.1c2.7-9.5,12.2-31.3,25.9-63.9c17.7-43.5,27.2-66.7,27.2-72.1h43.5c0,4.1,8.2,27.2,24.5,70.7 C438.1,1015,446.3,1038.1,446.3,1042.2z M393.2,981c-13.6-36.7-20.4-57.1-20.4-59.9h-1.4c0,2.7-6.8,23.1-20.4,59.9H393.2z"/>
	<path fill="#D71920" d="M568.7,1000c0,28.6-25.9,42.2-74.8,42.2c-9.5,0-23.1,0-40.8-1.4c1.4-21.8,1.4-46.3,1.4-73.5 c0-25.9-1.4-47.6-1.4-66.7h19c4.1,0,9.5,0,17.7,0c8.2,0,15,0,20.4,0c34,0,51.7,9.5,51.7,31.3c0,16.3-9.5,25.9-25.9,31.3v1.4 c9.5,1.4,17.7,4.1,24.5,9.5C564.6,981,568.7,989.1,568.7,1000z M527.9,940.1c0-12.2-9.5-19-25.9-19c-8.2,0-15,1.4-20.4,1.4 c1.4,6.8,1.4,20.4,1.4,36.7c2.7,0,6.8,0,9.5,0C517,960.5,527.9,953.7,527.9,940.1z M537.4,1001.4c0-15-13.6-21.8-40.8-21.8 c-5.4,0-9.5,0-13.6,1.4c0,15,0,28.6,1.4,42.2c2.7,1.4,6.8,1.4,12.2,1.4c15,0,24.5-1.4,31.3-4.1 C533.3,1015,537.4,1009.5,537.4,1001.4z"/>
	<path fill="#3E484F" d="M760.5,1042.2h-21.8c-1.4,0-4.1-1.4-4.1-4.1c0-17.7-1.4-74.8-1.4-77.6H732c-1.4,5.4-20.4,58.5-28.6,81.6 h-21.8c0,0-6.8-21.8-13.6-39.5s-12.2-29.9-15-42.2h-1.4c0,4.1,0,17.7-1.4,39.5c-1.4,20.4-1.4,35.4-1.4,42.2h-25.9 c0-1.4,6.8-103.4,6.8-103.4h40.8c0,8.2,24.5,78.9,24.5,78.9h1.4c1.4-4.1,23.1-69.4,24.5-78.9h42.2l4.1,99.3 C764.6,1039.5,763.3,1042.2,760.5,1042.2z"/>
	<path fill="#3E484F" d="M884.4,979.6c0,4.1,0,8.2-1.4,15l-74.8,1.4c1.4,8.2,4.1,15,10.9,20.4s15,8.2,25.9,8.2 c12.2,0,23.1-1.4,36.7-4.1l-2.7,20.4c-10.9,4.1-23.1,5.4-39.5,5.4c-20.4,0-35.4-5.4-46.3-15c-10.9-10.9-16.3-23.1-16.3-38.1 c0-15,5.4-28.6,15-39.5c9.5-10.9,24.5-17.7,42.2-17.7c16.3,0,28.6,4.1,36.7,12.2C880.3,955.1,884.4,966,884.4,979.6z M857.1,978.2c0-16.3-6.8-24.5-23.1-24.5c-15,0-23.1,8.2-25.9,25.9L857.1,978.2z"/>
	<path fill="#3E484F" d="M993.2,938.8v21.8c-10.9-1.4-23.1-1.4-34-1.4c0,9.5,0,58.5,1.4,78.9c0,1.4-1.4,4.1-4.1,4.1h-23.1 c-1.4,0-4.1-1.4-4.1-4.1c1.4-19,1.4-69.4,1.4-78.9c-10.9,0-23.1,1.4-35.4,1.4l1.4-21.8C896.6,938.8,993.2,938.8,993.2,938.8z"/>
	<path fill="#3E484F" d="M1104.8,1042.2l-27.2,1.4c-1.4-2.7-1.4-5.4-1.4-8.2h-1.4c-8.2,6.8-20.4,9.5-34,9.5 c-9.5,0-17.7-2.7-24.5-6.8c-6.8-5.4-9.5-12.2-9.5-20.4c0-10.9,4.1-20.4,15-27.2c9.5-6.8,27.2-10.9,53.1-10.9c0-1.4,0-2.7,0-4.1 c0-8.2-1.4-12.2-6.8-15c-4.1-2.7-12.2-4.1-21.8-4.1c-12.2,0-23.1,1.4-34,4.1l2.7-20.4c10.9-4.1,25.9-5.4,44.9-5.4 c13.6,0,24.5,2.7,32.7,8.2c6.8,5.4,12.2,15,12.2,28.6c0,2.7,0,8.2,0,16.3c0,8.2,0,13.6,0,16.3 C1100.7,1020.4,1102,1032.7,1104.8,1042.2z M1073.5,1019c0-9.5-1.4-17.7-1.4-25.9c-25.9,0-39.5,6.8-39.5,19 c0,8.2,5.4,12.2,17.7,12.2C1059.9,1025.9,1066.7,1023.1,1073.5,1019z"/>
	<path fill="#3E484F" d="M1114.3,1042.2c2.7-6.8,8.2-21.8,20.4-51.7c12.2-29.9,20.4-47.6,23.1-51.7h29.9 c1.4,4.1,6.8,21.8,17.7,53.1c9.5,23.1,15,38.1,16.3,44.9c1.4,2.7-1.4,4.1-4.1,4.1h-28.6c-1.4-4.1-4.1-15-12.2-36.7 c-6.8-21.8-9.5-34-12.2-38.1h-1.4c-1.4,4.1-5.4,15-12.2,36.7c-6.8,20.4-9.5,34-10.9,39.5H1114.3L1114.3,1042.2z"/>
	<path fill="#3E484F" d="M1387.7,937.8l-1.4,23.1c-5.4-1.4-23.1-1.4-51.7-1.4c0,12.2,1.4,58.5,1.4,77.6c0,1.4-1.4,4.1-4.1,4.1 h-23.1c-1.4,0-4.1-1.4-4.1-4.1c1.4-20.4,1.4-84.4,0-99.3H1387.7z"/>
	<path fill="#3E484F" d="M1752.3,937.8h-103.4c1.4,13.6,1.4,77.6,0,99.3c0,1.4,1.4,4.1,4.1,4.1h23.1c1.4,0,4.1-1.4,4.1-4.1 c-1.4-17.7-1.4-63.9-1.4-77.6c23.1,1.4,38.1,1.4,46.3,1.4c1.4,25.9,0,61.2-1.4,76.2c0,1.4,1.4,4.1,4.1,4.1h20.4 c1.4,0,4.1-1.4,4.1-4.1C1752.3,1022.1,1753.7,973.1,1752.3,937.8z"/>
	<path fill="#3E484F" d="M1522.4,985.4c0,15-4.1,28.6-15,40.8c-9.5,12.2-23.1,17.7-39.5,17.7c-12.2,0-20.4-2.7-25.9-6.8l-1.4-1.4 l1.4,54.4h-31.3c0,0,0-44.9,0-72.1c0-35.4-1.4-62.6-4.1-78.9l29.9-2.7l1.4,9.5l2.7-1.4c8.2-6.8,19-9.5,32.7-9.5 c15,0,25.9,4.1,35.4,15C1517,959.5,1522.4,971.8,1522.4,985.4z M1491.1,988.1c0-13.6-5.4-24.5-16.3-32.7c-15-2.7-25.9,0-34,6.8 c-1.4,1.4-1.4,1.4-1.4,2.7c1.4,17.7,1.4,38.1,1.4,54.4c4.1,4.1,10.9,5.4,19,5.4c9.5,0,17.7-4.1,23.1-10.9 C1488.4,1007.2,1491.1,997.6,1491.1,988.1z"/>
	<path fill="#3E484F" d="M1632.6,937.8c0,0-34,91.2-38.1,103.4c-6.8,17.7-13.6,29.9-21.8,36.7c-8.2,6.8-20.4,9.5-36.7,9.5 l-2.7-20.4c9.5,0,17.7-2.7,23.1-6.8c6.8-5.4,9.5-12.2,9.5-20.4c0-8.2-5.4-27.2-20.4-55.8c-13.6-28.6-20.4-44.9-20.4-44.9h29.9 l25.9,77.6c0,0,20.4-72.1,20.4-77.6C1602.7,937.8,1632.6,937.8,1632.6,937.8z"/>
</svg>