<svg xmlns="http://www.w3.org/2000/svg" viewBox="0 0 24 24">
	<path fill="#78909C" transform="translate(-467.000000, -479.000000)" d="M468,480 L468,486 L474,486 L474,480 L468,480 Z M476,480 L476,486 L482,486 L482,480 L476,480 Z M484,480 L484,486 L490,486 L490,480 L484,480 Z M468,488 L468,494 L474,494 L474,488 L468,488 Z M476,488 L476,494 L482,494 L482,488 L476,488 Z M484,488 L484,494 L490,494 L490,488 L484,488 Z M468,496 L468,502 L474,502 L474,496 L468,496 Z M476,496 L476,502 L482,502 L482,496 L476,496 Z M484,496 L484,502 L490,502 L490,496 L484,496 Z" />
</svg>