<svg xmlns="http://www.w3.org/2000/svg" viewBox="0 -1667.1 2000 3355.1">
    <path fill="#717A84" d="M901.3,1626.6L41.2,766.9c-54.9-54.9-54.9-143.4,0-198.3c54.9-54.9,143.4-54.9,197.9,0l761,761l761-761 c54.9-54.9,143.4-54.9,197.9,0c54.9,54.9,54.9,143.4,0,198.3l-859.7,859.7c-27.4,27.4-63.3,41.2-99.2,41.2 C964.1,1667.8,928.3,1654.1,901.3,1626.6z"/>
    <path fill="#717A84" d="M1098.7-1591.5l860.1,860.1c54.9,54.9,54.9,143.4,0,198.3c-54.9,54.9-143.4,54.9-197.9,0l-761.4-761.4 l-761,761c-54.9,54.9-143.4,54.9-197.9,0c-54.9-54.9-54.9-143.4,0-198.3L900.8-1592c27.4-27.4,63.3-41.2,99.2-41.2 C1035.4-1632.7,1071.3-1619,1098.7-1591.5z"/>
</svg>